<svg width="1024" height="1024" viewBox="0 0 1024 1024" fill="none" xmlns="http://www.w3.org/2000/svg">
<path d="M343.637 435.924C342.099 445.705 341.329 455.591 341.333 465.492C341.333 562.431 414.293 640.255 502.784 640.852C592.043 640.212 664.789 562.559 664.789 465.492C664.789 450.985 663.168 436.863 660.053 423.252C694.187 442.708 724.053 468.777 748.032 499.625C732.245 626.516 629.504 725.289 502.784 726.185C383.659 725.332 285.184 636.927 261.461 520.02C283.048 486.862 310.975 458.297 343.637 435.967V435.924ZM953.173 442.153L890.24 499.796C766.379 364.671 659.968 298.665 512 298.665C367.659 298.665 256.853 368.255 133.888 499.028L71.7227 440.575C209.323 294.228 338.091 213.332 512 213.332C689.323 213.332 814.72 291.071 953.173 442.153Z" fill="#4D4D4D" fill-opacity="0.79"/>
</svg>
