<svg width="800" height="800" viewBox="0 0 800 800" fill="none" xmlns="http://www.w3.org/2000/svg">
<path d="M433.33 66.668C341.283 66.668 266.664 141.287 266.664 233.335C266.664 251.744 281.587 266.668 299.997 266.668C318.406 266.668 333.33 251.744 333.33 233.335C333.33 178.106 378.103 133.335 433.33 133.335H566.663C621.893 133.335 666.663 178.106 666.663 233.335V566.668C666.663 621.898 621.893 666.668 566.663 666.668H433.33C378.103 666.668 333.33 621.898 333.33 566.668C333.33 548.258 318.406 533.335 299.997 533.335C281.587 533.335 266.664 548.258 266.664 566.668C266.664 658.715 341.283 733.335 433.33 733.335H566.663C658.71 733.335 733.33 658.715 733.33 566.668V233.335C733.33 141.287 658.71 66.668 566.663 66.668H433.33Z" fill="#B75757"/>
<path d="M466.663 366.668C485.073 366.668 499.996 381.591 499.996 400.001C499.996 418.411 485.073 433.335 466.663 433.335V366.668Z" fill="#B75757"/>
<path d="M190.594 366.666C193.562 363.006 196.405 359.456 199.094 356.066C207.277 345.743 214.205 336.68 219.097 330.183C221.545 326.931 223.489 324.315 224.832 322.497L226.384 320.387L226.8 319.818L226.947 319.616C226.949 319.614 226.964 319.592 199.997 300L226.947 319.616C237.768 304.722 234.483 283.853 219.59 273.032C204.697 262.212 183.853 265.513 173.031 280.405L172.937 280.534L172.596 281L171.204 282.893C169.973 284.56 168.152 287.011 165.839 290.083C161.208 296.234 154.625 304.847 146.856 314.645C131.148 334.456 111.253 358.27 93.0933 376.43L69.5229 400L93.0933 423.57C111.253 441.73 131.148 465.543 146.856 485.353C154.625 495.153 161.208 503.766 165.839 509.916C168.152 512.99 169.973 515.44 171.204 517.106L172.596 519L172.937 519.466L173.015 519.573C183.836 534.463 204.697 537.786 219.59 526.966C234.483 516.146 237.785 495.3 226.964 480.406L199.997 500C226.964 480.406 226.966 480.41 226.964 480.406L226.8 480.183L226.384 479.613L224.832 477.503C223.489 475.683 221.545 473.07 219.097 469.816C214.205 463.32 207.277 454.256 199.094 443.933C196.405 440.543 193.562 436.993 190.594 433.333H466.663V366.666H190.594Z" fill="#B75757"/>
</svg>
