<svg width="1024" height="1024" viewBox="0 0 1024 1024" fill="none" xmlns="http://www.w3.org/2000/svg">
<path d="M864.065 636.866C842.613 573.148 793.851 525.216 734.694 502.372L684.024 327.278C654.756 226.141 557.784 162.006 456.363 169.568L455.206 165.567C441.854 119.432 393.095 92.6378 346.849 106.021C300.609 119.402 273.694 168.095 287.044 214.23L288.201 218.231C198.41 266.002 150.68 372.014 179.947 473.149L230.617 648.243C192.798 699.151 177.171 765.715 193.066 831.042L276.528 806.89L276.691 807.452L780.766 661.581L780.604 661.019L864.065 636.866Z" fill="#515050"/>
<path d="M444.907 923.019L465.775 916.979C520.488 901.147 554.031 846.723 545.347 791.941L325.705 855.502C347.617 906.456 405.045 934.552 459.749 918.722L444.907 923.019Z" fill="white"/>
</svg>
