<svg width="1024" height="1024" viewBox="0 0 1024 1024" fill="none" xmlns="http://www.w3.org/2000/svg">
<path d="M815.62 727.734C812.644 660.567 779.055 601.011 728.533 562.684L728.31 380.406C728.181 275.12 652.751 186.648 553.199 165.84L553.195 161.675C553.136 113.648 513.698 74.4034 465.555 74.462C417.417 74.5214 378.075 113.861 378.133 161.889L378.138 166.054C278.632 187.104 203.422 275.761 203.552 381.046L203.775 563.324C153.341 601.774 119.9 661.412 117.091 728.586L203.977 728.48L203.978 729.065L728.735 728.425L728.734 727.84L815.62 727.734Z" fill="#515050"/>
<path d="M432.576 885.951L454.3 885.924C511.258 885.855 558.555 842.843 565.374 787.798L336.72 788.077C343.672 843.105 391.079 886 448.027 885.931L432.576 885.951Z" fill="#515050"/>
</svg>
