<svg width="1024" height="1024" viewBox="0 0 1024 1024" fill="none" xmlns="http://www.w3.org/2000/svg">
<path d="M512 384.215C557.263 384.215 600.673 402.196 632.679 434.202C664.686 466.208 682.667 509.618 682.667 554.881C682.667 600.145 664.686 643.555 632.679 675.561C600.673 707.567 557.263 725.548 512 725.548C466.736 725.548 423.326 707.567 391.32 675.561C359.314 643.555 341.333 600.145 341.333 554.881C341.333 509.618 359.314 466.208 391.32 434.202C423.326 402.196 466.736 384.215 512 384.215ZM512 448.215C497.992 448.215 484.122 450.974 471.18 456.334C458.239 461.695 446.48 469.552 436.575 479.457C426.67 489.361 418.813 501.12 413.453 514.062C408.092 527.003 405.333 540.874 405.333 554.881C405.333 568.889 408.092 582.759 413.453 595.701C418.813 608.642 426.67 620.401 436.575 630.306C446.48 640.211 458.239 648.068 471.18 653.428C484.122 658.789 497.992 661.548 512 661.548C540.29 661.548 567.421 650.31 587.425 630.306C607.428 610.302 618.667 583.171 618.667 554.881C618.667 526.592 607.428 499.46 587.425 479.457C567.421 459.453 540.29 448.215 512 448.215ZM512 234.668C708.864 234.668 878.763 369.068 925.909 557.399C926.932 561.475 927.141 565.713 926.526 569.87C925.911 574.027 924.483 578.022 922.324 581.628C920.165 585.233 917.316 588.378 913.942 590.883C910.567 593.387 906.732 595.203 902.656 596.225C898.58 597.248 894.342 597.458 890.185 596.842C886.027 596.227 882.032 594.799 878.427 592.64C874.821 590.481 871.676 587.632 869.172 584.258C866.667 580.883 864.852 577.048 863.829 572.972C844.107 494.585 798.772 425.03 735.018 375.342C671.263 325.654 592.742 298.68 511.912 298.699C431.082 298.719 352.574 325.731 288.844 375.45C225.114 425.169 179.812 494.746 160.128 573.143C157.917 581.204 152.64 588.08 145.426 592.3C138.211 596.521 129.631 597.751 121.521 595.728C113.411 593.705 106.415 588.589 102.028 581.473C97.6414 574.358 96.2128 565.809 98.0479 557.655C121.185 465.386 174.483 383.492 249.481 324.975C324.478 266.458 416.875 234.674 512 234.668Z" fill="white"/>
</svg>
