<svg width="2972" height="3892" viewBox="0 0 2972 3892" fill="none" xmlns="http://www.w3.org/2000/svg">
<path d="M1830.3 245.337C1823.55 249.754 1816.81 254.118 1815.26 254.95C1812.16 256.719 1805.8 258.129 1791.07 260.41C1778.31 262.391 1776.63 262.751 1773.51 264.573C1770.28 266.371 1768.79 268.096 1765.54 273.59C1764.08 275.985 1762.35 278.267 1761.61 278.663C1754.81 282.462 1733.72 282.84 1711.44 279.597C1706.71 278.925 1700.44 278.255 1697.5 278.128C1692.85 277.967 1687.37 276.914 1654.15 269.857C1624.78 263.672 1615.04 261.439 1611.64 260.11C1607.63 258.595 1606.77 258.467 1603.65 258.632C1598.61 258.886 1561.19 267.664 1558.92 269.115C1556.45 270.688 1539.76 291.155 1537.74 295.087C1535.27 299.974 1534.61 303.642 1535.62 307.555C1537.07 313.328 1538.91 314.989 1548.73 319.614C1555.27 322.659 1557.86 324.7 1560.7 329.223C1564.33 335.019 1564.72 340.18 1562.33 351.43C1561.31 355.961 1559.87 361.065 1558.9 363.398C1556.79 368.305 1555.42 374.473 1555.73 377.465C1556.16 381.863 1558.6 384.644 1566.68 390.17C1594.69 409.204 1604.44 420.88 1607.11 438.78C1607.86 443.632 1606.59 452.691 1604.15 459.682C1602.67 463.84 1601.96 464.958 1596.9 470.894C1593.87 474.556 1588.29 480.436 1584.62 484.018C1580.89 487.588 1575.86 492.813 1573.43 495.608C1570.99 498.456 1566.94 502.676 1564.43 505.013C1561.9 507.402 1557.53 512.049 1554.62 515.406C1551.73 518.71 1546.99 523.666 1544.15 526.43C1541.26 529.129 1536.49 534.244 1533.51 537.694C1530.52 541.144 1525.67 546.353 1522.75 549.21C1519.77 552.055 1513.75 558.615 1509.39 563.762C1505.03 568.908 1497.04 577.755 1491.67 583.46C1479.41 596.478 1476.95 599.379 1473.99 604.38C1469.47 611.976 1467.39 619.815 1467.59 628.636C1467.71 631.698 1468.09 632.993 1470.05 636.335C1474.23 643.515 1482.11 658.383 1483.01 660.838C1483.73 662.757 1483.77 663.98 1483.13 666.991C1482.41 670.371 1482 671.168 1478.53 675.233C1474.39 680.204 1477.88 678.02 1436.69 701.179C1415.92 712.887 1357.65 748.038 1350.02 753.484C1335.62 763.729 1324.01 776.445 1316.73 790.025C1314.96 793.347 1314.4 795.712 1304.14 845.423C1294.08 893.855 1293.33 897.394 1292.36 897.518C1291.74 897.609 1288.64 896.564 1285.43 895.218C1270.2 888.947 1189.39 871.174 1167.69 869.38C1164.19 869.079 1156.47 868.266 1150.56 867.617C1121.22 864.312 1083.82 863.542 1055.53 865.648C962.047 872.619 880.144 906.947 814.539 966.543C796.223 983.188 777.056 1004.12 766.535 1019C763.243 1023.6 758.728 1029.76 756.511 1032.66C754.236 1035.55 750.944 1040.15 749.157 1042.97C742.191 1053.69 726.949 1078.49 724.18 1083.43C720.338 1090.34 707.133 1117.01 705.035 1122.14C704.143 1124.38 702.235 1128.34 700.913 1130.93C699.534 1133.51 697.909 1137.25 697.244 1139.26C696.647 1141.23 695.011 1145.02 693.689 1147.61C692.424 1150.21 690.596 1154.9 689.742 1158.09C688.841 1161.21 686.642 1167.09 684.893 1171.14C682.522 1176.43 680.989 1180.85 679.426 1187.09C678.178 1191.85 676.41 1197.65 675.429 1200.04C670.227 1212.79 663.302 1240.08 659.42 1263.11C656.478 1280.31 656.456 1280.69 655.642 1282.29C655.349 1282.83 652.027 1284.78 648.331 1286.53C600.116 1309.24 536.124 1355.66 495.926 1397.08C488.543 1404.73 464.228 1432.85 457.427 1441.68C452.923 1447.51 441.726 1464.45 430.577 1482.29C421.656 1496.62 419.35 1500.77 417.016 1507.01C416.182 1509.26 414.635 1512.63 413.629 1514.57C412.578 1516.45 410.885 1520.23 409.79 1522.86C408.695 1525.5 406.867 1529.64 405.771 1532C404.619 1534.35 402.477 1540.25 400.979 1545.06C399.481 1549.88 397.452 1555.52 396.481 1557.58C394.279 1562.35 390.499 1576.23 387.256 1591.22C384.462 1604.38 383.302 1612.91 383.132 1622.09C383.05 1625.55 382.487 1631.83 381.884 1636.07C381.293 1640.25 380.897 1645.19 381.049 1646.99C381.144 1648.77 381.155 1653.19 381.051 1656.76C380.747 1666.85 382.167 1694.53 383.511 1705.25C384.171 1710.53 384.914 1717.09 385.159 1719.85C385.824 1727.05 394.226 1763.51 399.046 1779.93C415.981 1837.68 449.979 1904.53 494.799 1968.2C500.952 1976.96 506.148 1984.64 506.365 1985.29C506.754 1986.53 502.098 2003.98 498.391 2015.28C496.16 2022.15 491.425 2044.44 490.75 2051.53C490.417 2054.5 488.864 2064.32 487.229 2073.42C484.732 2087.13 484.152 2091.26 483.999 2098.12C483.874 2102.62 483.234 2110.11 482.621 2114.67C481.941 2119.55 481.556 2124.71 481.744 2127.18C481.909 2129.48 481.795 2133.92 481.371 2137.04C481.005 2140.44 480.969 2143.96 481.302 2145.74C481.658 2147.42 481.702 2151.13 481.437 2154.05C481.183 2156.92 481.105 2162.04 481.329 2165.46C481.564 2168.82 481.657 2173.97 481.528 2176.82C481.398 2179.66 481.777 2185.7 482.321 2190.12C482.855 2194.6 483.438 2200.79 483.605 2203.92C484.856 2227.65 492.021 2264.61 501.019 2294.35C517.628 2348.88 546.455 2399.83 585.892 2444.42C625.863 2489.57 680.807 2529.34 744.741 2559.48C770.531 2571.64 804.735 2584.98 827.628 2591.78C833.32 2593.48 840.33 2595.69 843.182 2596.79C853.375 2600.5 864.598 2603.27 908.659 2612.96C933.217 2618.35 953.493 2622.93 953.732 2623.2C954.039 2623.43 955.626 2627.14 957.374 2631.48C970.261 2663.86 988.69 2696.98 1013.08 2731.64C1047.63 2780.83 1083.51 2818.37 1132.41 2856.42C1138.64 2861.21 1144.71 2866.15 1145.93 2867.4C1154.08 2875.43 1165.01 2897.73 1171.19 2918.92C1175.91 2934.99 1177.06 2946.06 1175.39 2959.23C1174.88 2963.31 1174.38 2963.7 1171.8 2962.16C1169.33 2960.64 1168.3 2958.82 1165.05 2950.35C1158.41 2932.99 1154.87 2928.98 1140.14 2922.04C1127.46 2916.09 1122.23 2914.42 1104.74 2910.71C1092.98 2908.21 1087.54 2907.28 1082.68 2906.96C1079.17 2906.71 1071.29 2905.81 1065.24 2904.97C1054.53 2903.41 1054.05 2903.42 1049.58 2904.35C1035.09 2907.45 1010.64 2920.31 995.058 2933.01C982.981 2942.92 978.599 2947.62 970.739 2959.47C962.596 2971.82 959.875 2977.92 957.306 2990.02C955.376 2999.1 955.005 3005.04 955.593 3017.92C956.121 3029.13 956.915 3033.49 960.922 3047.04C964.334 3058.64 964.292 3059.96 960.489 3064.45C956.425 3069.33 944.579 3076.19 928.771 3082.99C917.328 3087.96 911.255 3092.8 907.516 3100.06C903.471 3107.93 904.152 3117.01 909.651 3127.73C912.287 3132.93 921.08 3144.62 925.564 3148.94C930.583 3153.82 930.81 3153.87 959.774 3160.02C981.81 3164.7 985.82 3165.66 986.696 3166.57C987.288 3167.14 989.231 3172.24 991.072 3177.82C998.177 3199.7 1007.03 3225.1 1015.83 3248.5C1018.11 3254.5 1020.48 3261.24 1021.13 3263.48C1021.79 3265.72 1023.56 3270.78 1025.1 3274.7C1026.64 3278.62 1028.96 3285.29 1030.33 3289.5C1031.7 3293.66 1033.85 3299.74 1035.18 3302.95C1036.46 3306.15 1039.38 3314.22 1041.63 3320.94C1045.83 3333.31 1048.37 3340.37 1052.88 3351.82C1054.27 3355.31 1056.19 3360.8 1057.11 3364.03C1058.1 3367.22 1060.21 3373.19 1061.79 3377.22C1063.43 3381.22 1065.97 3388.27 1067.48 3392.9C1068.93 3397.51 1071 3403.42 1072.11 3406.03C1073.16 3408.62 1075.31 3414.71 1076.91 3419.47C1078.51 3424.22 1082.19 3434.56 1085.1 3442.4C1088 3450.25 1090.46 3457.4 1090.59 3458.2C1090.93 3461.03 1090.45 3480.64 1089.89 3484.94C1089.63 3487.31 1089.44 3491.24 1089.57 3493.7C1089.85 3499.67 1088.74 3542.05 1088.27 3544.27C1087.91 3545.96 1087.71 3546.08 1080.53 3547.76C1067.27 3550.9 1051.2 3556.98 1043.16 3561.85C1039 3564.39 1033.96 3569.99 1032.03 3574.33C1030.25 3578.2 1028.62 3588.13 1029.2 3591.84C1029.97 3596.86 1032.88 3602.44 1039.59 3611.65C1051.56 3628.22 1060.52 3636.08 1072.97 3640.88C1077.47 3642.61 1078.04 3642.73 1082.33 3642.65C1093.85 3642.34 1103.33 3638.5 1120.8 3626.97C1128.61 3621.79 1131.46 3620.63 1133.68 3621.65C1134.49 3622.04 1136.98 3625.39 1139.81 3629.96C1148.84 3644.47 1154.53 3651.2 1162.88 3657.17C1169.52 3661.94 1173.63 3663.81 1179.32 3664.69C1187.01 3665.94 1194.65 3664.36 1202.71 3659.94C1207.07 3657.56 1229.13 3640.05 1232.69 3636.17C1236.64 3631.82 1239.2 3625.07 1239.01 3619.57C1238.84 3612.52 1233.63 3600.98 1227.56 3594.12C1222.28 3588.19 1213.91 3580.4 1207.23 3575.22C1199.99 3569.66 1199.37 3568.92 1199.76 3567.07C1199.93 3566.28 1207.46 3547.89 1216.45 3526.23C1229.8 3494.12 1233.21 3486.45 1234.73 3484.62C1235.82 3483.42 1284.06 3432.89 1341.92 3372.31L1447.17 3262.18L1475.57 3267.93C1503.56 3273.6 1504.02 3273.7 1506.31 3272.97C1517.72 3269.55 1532.06 3260.45 1538.22 3252.7C1548.91 3239.24 1547.22 3226.24 1532.7 3210.79C1529.41 3207.27 1523.88 3200.3 1519.83 3194.53C1511.51 3182.83 1510.29 3179.92 1511.38 3174.79C1511.98 3171.94 1512.59 3171.02 1516.93 3165.98C1526.19 3155.08 1532.75 3145.16 1537.74 3134.24C1541.69 3125.7 1545.06 3112.34 1545.52 3103.49C1547.23 3070.01 1533.55 3037.74 1504.4 3006.76C1497.71 2999.65 1493.39 2996.25 1490.1 2995.55C1488.85 2995.29 1482.01 2993.11 1474.81 2990.7C1459.18 2985.45 1446.06 2982.11 1430.52 2979.53C1409.82 2976.12 1395.7 2976.93 1384.33 2982.14C1381.56 2983.42 1379.21 2984.14 1378.36 2983.96L1376.94 2983.66L1378.55 2977.76C1380.36 2971.19 1384.61 2959.84 1387.02 2955.22C1389.12 2951.19 1393.15 2946.19 1397.84 2942C1403.13 2937.22 1415.26 2928.15 1418.59 2926.48C1420.05 2925.74 1426.37 2923.94 1432.55 2922.49C1479.95 2911.42 1523.01 2895.67 1565.74 2873.88C1588.51 2862.27 1625.97 2838.76 1648.6 2821.93C1665.79 2809.18 1686.29 2791.46 1693.14 2783.53L1696.06 2780.12L1734.42 2788.16C1773.79 2796.46 1790.54 2799.47 1801.28 2800.32C1804.68 2800.54 1812.28 2801.38 1818.16 2802.19C1830.86 2803.89 1858.1 2806.15 1873.7 2806.76C1931.42 2809.14 1988.27 2803.6 2035.93 2791.04C2089.68 2776.9 2138.39 2753.85 2180.11 2722.85C2236.84 2680.75 2284.35 2620.23 2317.22 2548.22C2338.02 2502.57 2351.33 2458.91 2360.34 2406.45C2364.51 2382.05 2364.94 2380.04 2366.59 2378.13C2367.29 2377.34 2371.46 2374.75 2375.76 2372.41C2383.8 2368.1 2390.84 2363.74 2412.25 2349.85C2446.26 2327.76 2472.6 2307.41 2501.53 2281.04C2531.13 2254.04 2552.25 2230.32 2572.98 2200.94C2588.96 2178.22 2606.48 2147.16 2613.34 2129.41C2614.91 2125.38 2616.89 2120.5 2617.77 2118.59C2618.67 2116.63 2620.64 2110.98 2622.23 2106.01C2623.76 2101.04 2625.97 2094.55 2627.19 2091.61C2630.31 2083.88 2638.38 2045.91 2638.46 2038.53C2638.46 2035.76 2639.04 2029.1 2639.67 2023.6C2642.38 2000.55 2641.4 1968.54 2636.95 1937.24C2630.3 1890 2613.3 1838.42 2588.11 1788.8C2569.04 1751.18 2543.18 1711.41 2520.52 1684.79C2517.91 1681.69 2515.48 1678.36 2515.16 1677.35C2514.56 1675.68 2514.89 1673.87 2518.97 1656.03C2523.5 1636.4 2528.2 1610.62 2528.34 1604.69C2528.33 1603.03 2529.2 1595.87 2530.23 1588.8C2531.2 1581.72 2532.14 1573.09 2532.22 1569.63C2532.3 1566.17 2532.7 1560.13 2532.98 1556.27C2535.92 1518.97 2534.59 1478.83 2528.88 1438.09C2519.15 1368.23 2493.93 1303.36 2456.24 1251.41C2414.65 1194.05 2355.84 1148.16 2283.08 1116.26C2258.26 1105.41 2223.47 1093.16 2201.62 1087.58C2183.42 1083 2137.59 1073.26 2116.53 1069.56L2099.42 1066.59L2098.46 1065.22L2097.51 1063.81L2099.79 1057.83C2101.8 1052.57 2103.11 1046.95 2110.22 1013.51C2117.71 978.226 2118.37 974.557 2118.94 966.84C2119.56 958.082 2119.27 954.708 2116.98 945.611C2114.28 934.603 2109.97 923.861 2104.01 913.375C2100.21 906.662 2057.96 846.513 2037.93 819.292C2029.35 807.699 2021.99 797.082 2020.96 794.931C2018.4 789.641 2016.76 782.833 2017.34 780.14C2017.58 778.978 2018.35 777.319 2019.05 776.53C2019.77 775.687 2025.69 770.708 2032.22 765.414C2044.34 755.569 2047.57 752.39 2049.75 748.271C2050.84 746.186 2050.95 744.829 2051.15 736.369C2051.32 727.186 2051.24 726.451 2048.92 717.513C2044.59 700.749 2019.52 627.356 1999.85 573.825C1990.54 548.332 1989.97 545.449 1992.15 534.926C1994.66 522.818 2000.99 514.227 2012.56 507.298C2022.08 501.593 2032.83 497.915 2047.96 495.166C2066.54 491.772 2069.89 488.894 2070.84 475.737C2071.48 467.15 2074.07 454.949 2076.22 450.712C2078.67 445.878 2082.13 441.866 2085.7 439.589C2090.08 436.875 2091.39 436.547 2097.77 436.412C2107.77 436.273 2113.12 434.316 2116.81 429.524C2120.01 425.346 2120.1 424.372 2118.08 413.455C2117.12 407.95 2115.45 400.42 2114.39 396.771C2111.45 386.266 2110.96 385.776 2091.47 371.091L2075.09 358.779L2062.26 356.328C2055.18 354.991 2035.11 350.838 2017.63 347.069C1988.72 340.928 1984.99 340.026 1976.7 337.16C1971.65 335.481 1964.16 333.06 1960.02 331.851C1951.53 329.33 1943.48 326.183 1936.57 322.673C1929.98 319.287 1921.46 313.887 1920.56 312.537C1920.16 311.9 1919.72 308.936 1919.59 305.927C1919.05 295.6 1916.66 292.884 1898.66 281.774C1893.46 278.572 1887.91 274.799 1886.32 273.356C1882.07 269.637 1876.8 262.281 1871.47 252.756C1868.88 248.176 1866.35 243.885 1865.82 243.277C1864.97 242.267 1863.41 241.771 1853.64 239.696L1842.51 237.331L1830.3 245.337ZM1855.39 253.261C1856.89 254.297 1858.78 256.852 1861.63 261.598C1867.79 272.014 1873.57 280.031 1876.59 282.275C1878.07 283.417 1884.93 288.02 1891.92 292.542C1898.9 297.117 1904.9 301.316 1905.36 301.912C1905.77 302.496 1906.21 304.631 1906.26 306.629C1906.77 315.957 1911.07 322.556 1920.15 328.129C1932.93 335.867 1949.36 342.615 1971.19 349.128C1984.98 353.217 2016.81 360.42 2040.85 364.865C2053.59 367.239 2065.29 369.448 2066.82 369.774C2069.31 370.357 2071.39 371.738 2083.97 381.256C2092.21 387.424 2098.79 392.795 2099.51 393.886C2100.49 395.419 2106.25 420.27 2105.92 421.802C2105.69 422.911 2103.04 423.62 2098 423.874C2082.34 424.687 2072.14 430.8 2064.69 443.792C2061.27 449.801 2058.28 461.642 2057.94 470.237C2057.66 479.672 2057.64 479.777 2056.25 480.422C2055.58 480.777 2053.41 481.253 2051.39 481.541C2046.49 482.213 2032.78 485.317 2027.49 487.009C2019.35 489.585 2012.87 492.405 2006.01 496.468C1991.89 504.84 1983.41 515.129 1979.53 528.657C1975.83 541.617 1977.42 551.174 1987.94 579.577C2005.44 626.85 2030.6 700.372 2035.79 719.526C2038.52 729.601 2038.75 739.697 2036.32 744.149C2035.64 745.385 2030.14 750.343 2021.28 757.68C2005.52 770.673 2004.57 771.796 2003.63 778.166C2003.16 781.766 2003.32 782.959 2005.18 789.315C2008.51 800.733 2010.02 803.426 2024.41 822.825C2056.62 866.266 2084.71 906.13 2091.53 917.902C2100.86 934.07 2106.44 951.1 2105.8 961.397C2105.61 964.228 2101.6 984.242 2093.66 1021.59C2084.27 1065.8 2081.95 1077.56 2082.48 1077.84C2082.79 1078.07 2086.3 1078.59 2090.13 1079.02C2113.42 1081.71 2123.28 1083.36 2155.65 1090.23C2188.31 1097.17 2193.83 1098.57 2217.55 1105.92C2271.7 1122.61 2313.06 1141.94 2352.13 1168.68C2393.7 1197.11 2430.04 1233.92 2455.71 1273.71C2504.15 1348.59 2525.64 1440.77 2519.93 1548.97C2517.84 1588.71 2512.99 1619.65 2500.31 1674.31L2499.25 1678.72L2502.78 1683.06C2527.93 1713.91 2548.11 1742.98 2564.86 1772.54C2595.14 1826.12 2615.76 1884.15 2623.6 1938.04C2634.11 2009.83 2624.33 2075.71 2593.64 2140.02C2561.83 2206.74 2506.78 2267.8 2428.41 2323.48C2411.48 2335.56 2395.32 2345.98 2373.44 2359C2361.96 2365.83 2352.38 2371.8 2352.05 2372.23C2351.77 2372.72 2350.89 2377.72 2350.16 2383.37C2345.83 2417.17 2336.84 2456.16 2326.03 2488.59C2295.62 2579.51 2247.89 2651.63 2183.81 2703.49C2122.94 2752.77 2049.93 2781.87 1963.46 2791.32C1911.87 2796.93 1852.84 2795.15 1791.84 2786.11C1769.51 2782.8 1722.85 2773.33 1702.49 2768.02C1697.99 2766.84 1694.03 2765.94 1693.61 2765.96C1693.25 2766 1689.46 2769.28 1685.28 2773.3C1664.42 2793.27 1642.54 2811.04 1618.08 2827.87C1605.34 2836.7 1574.41 2855.14 1560.5 2862.23C1518.87 2883.58 1475.1 2899.62 1431.42 2909.66C1418.01 2912.72 1414.01 2914.19 1406.91 2918.59C1398.28 2923.99 1381.44 2938.46 1377.62 2943.83C1375.02 2947.42 1374.41 2948.89 1366.01 2971.68C1359.88 2988.26 1349.61 3015.06 1342.18 3033.85C1340.88 3037.16 1340.04 3040.02 1340.23 3040.23C1340.73 3040.67 1341.52 3040.01 1367.09 3015.51C1379.25 3003.8 1389.92 2993.81 1390.73 2993.32C1400.49 2986.78 1430.48 2990.34 1472.23 3003.13C1486.84 3007.55 1488.73 3008.68 1497.43 3018.03C1514.26 3036.07 1526.29 3058.22 1530.21 3078.32C1536.22 3108.97 1526.46 3137.86 1501.6 3163.27C1495.91 3169.08 1495.04 3172.65 1497.43 3180.66C1500.02 3189.44 1508.84 3202.96 1521.49 3217.46C1528.89 3225.93 1530.92 3229.23 1531.22 3233.38C1531.79 3240.19 1526.98 3247.5 1517.93 3253.47C1512.82 3256.86 1505.12 3260.13 1502.07 3260.26C1500.51 3260.31 1489.96 3258.29 1471.5 3254.37C1449.86 3249.78 1443.13 3248.51 1442.35 3248.84C1441.76 3249.1 1419.22 3272.47 1392.21 3300.74C1365.25 3329.02 1316.24 3380.32 1283.28 3414.78C1250.32 3449.24 1222.55 3478.5 1221.51 3479.77C1220.05 3481.62 1215.55 3492.2 1201.54 3526.59C1191.61 3550.98 1183.36 3571.64 1183.19 3572.44C1182.91 3573.76 1183.31 3574.12 1188.54 3577.44C1202.03 3586.04 1212.5 3595.39 1219.06 3604.79C1224.65 3612.82 1226.22 3617.18 1225.11 3622.14C1224.2 3626.41 1222.67 3628.3 1215.65 3633.65C1212.83 3635.76 1208.35 3639.55 1205.67 3642.08C1200 3647.27 1194.23 3650.69 1189.06 3651.85C1185.89 3652.5 1184.82 3652.5 1180.34 3651.54C1175.62 3650.54 1174.92 3650.23 1171.21 3647.56C1162.87 3641.54 1158.69 3636.07 1144.27 3612.03C1139.71 3604.44 1135.7 3598.17 1135.3 3598.09C1134.91 3598.01 1132.88 3599.73 1130.86 3601.95C1124.49 3608.77 1117.11 3614.43 1105.79 3621.08C1091.88 3629.28 1087.03 3630.84 1079.64 3629.33C1069.35 3627.19 1059.3 3618.05 1048.54 3601.08C1040.71 3588.76 1040.94 3581.52 1049.51 3574.46C1057.51 3567.82 1078.64 3560.27 1095.92 3557.98C1098.37 3557.62 1100.7 3557.01 1101.08 3556.59C1101.93 3555.67 1105.13 3461.56 1104.46 3457.17C1104.01 3454.26 998.026 3157.38 996.624 3155.04C996.008 3154.03 993.532 3153.39 966.009 3147.43L936.113 3140.92L933.951 3138.8C930.514 3135.42 923.575 3125.34 921.816 3121.04C918.549 3113.23 919.019 3105.99 923.107 3101.83C925.395 3099.45 927.617 3098.21 939.285 3092.74C961.839 3082.12 973.011 3073.68 977.165 3064.18C979.028 3059.89 978.772 3057.46 975.73 3048.59C960.749 3005.1 972.245 2967.19 1008.95 2939.16C1020.21 2930.57 1040.44 2920.01 1049.92 2917.83C1054.43 2916.75 1057.49 2916.85 1070.49 2918.23C1081.8 2919.47 1113.25 2925.66 1122.06 2928.35C1134.42 2932.2 1143.29 2936.84 1146.51 2941.22C1147.25 2942.21 1153.91 2957.81 1161.39 2975.96C1168.82 2994.1 1175.18 3009.14 1175.47 3009.42C1176.35 3010.33 1176.83 3009.44 1179.62 3002.19C1188.36 2979.48 1190.98 2962.98 1189.12 2942.38C1187.98 2929.33 1183.15 2910.14 1177.86 2897.04C1171.88 2882.41 1162.51 2865.62 1157.17 2860.02C1155.91 2858.7 1149.38 2853.39 1142.66 2848.16C1073.44 2794.54 1020.07 2730.31 983.331 2656.26C978.585 2646.75 968.937 2624.83 965.486 2615.93L963.807 2611.54L947.247 2608.46C913.957 2602.28 881.424 2594.76 854.76 2587C738.732 2553.4 649.571 2500.07 589.063 2428.1C539.772 2369.54 510.299 2300.96 499.401 2219.53C493.443 2174.93 493.748 2129.07 500.409 2077.87C502.347 2062.88 513.503 2011.48 518.119 1996.18C520.157 1989.38 521.778 1983.71 521.687 1983.58C521.596 1983.45 514.953 1973.92 506.955 1962.39C475.121 1916.66 453.48 1879.1 435.669 1838.61C386.917 1728.06 382.09 1627.55 420.964 1533.13C444.39 1476.22 483.628 1423.39 536.326 1377.62C573.811 1345.06 614.261 1318.1 659.92 1295.12L668.492 1290.81L675.877 1256.61C684.047 1218.71 687.478 1206.19 697.341 1178.2C747.156 1037.02 833.822 941.712 949.81 900.327C1013.91 877.453 1085.16 871.722 1168.42 882.728C1187.87 885.315 1206.44 888.707 1230.68 894.188C1257.41 900.252 1271.72 904.121 1300.4 913.028L1303.84 914.146L1316.62 854.811L1329.41 795.477L1331.89 791.589C1338.18 781.829 1348.04 771.724 1360.18 762.654C1370.54 754.972 1413.21 729.589 1465.4 700.156C1480.57 691.62 1484.84 688.553 1490.48 682.132C1494.85 677.209 1497.28 672.48 1497.94 667.983C1498.72 662.352 1498.41 661.569 1485.93 636.781C1483.54 632.079 1481.58 627.355 1481.46 626.227C1481.24 623.64 1483.38 617.47 1486.27 611.957C1488.71 607.452 1494.84 600.141 1514.93 577.912C1536.49 554.116 1569.29 519.294 1595.61 492.369C1610.47 477.145 1615.15 471.071 1618.04 463.296C1625.45 443.506 1620.34 421.772 1604.16 404.038C1596.78 396.012 1584.68 386.209 1575.29 380.681C1569 377.027 1569.04 377.145 1571.7 370.479C1574.44 363.719 1577.82 348.648 1577.75 343.665C1577.59 334.081 1575.65 327.266 1571.46 321.297C1567.85 316.223 1564.52 313.473 1556.54 309.128C1549.78 305.43 1548.57 304.454 1548.84 303.186C1548.91 302.816 1552.52 297.842 1556.82 292.131C1563.52 283.23 1564.99 281.611 1567.47 280.314C1571.48 278.186 1598.99 271.886 1603.91 271.936C1606.93 271.97 1609.66 272.549 1617.4 274.637C1630.88 278.272 1674.83 287.61 1687.95 289.568C1726.47 295.433 1745 296.222 1759.39 292.764C1768.97 290.437 1774.72 286.526 1777.92 280.139C1780.54 274.789 1779.5 275.23 1798.55 272.156C1805.87 270.951 1813.28 269.599 1815.03 269.197C1819.3 268.063 1825.79 264.362 1834.25 258.321C1845.23 250.496 1849.86 249.382 1855.39 253.261Z" fill="#515050"/>
<path d="M1844.94 281.237C1836.3 281.113 1826.11 284.912 1820.95 290.218C1811.46 299.961 1810.32 314.844 1818.14 326.057C1823.16 333.195 1830.84 338.085 1840.21 340.075C1850.32 342.223 1851.25 341.482 1845.48 335.95C1843.21 333.81 1840.55 330.652 1839.6 329.013C1833.38 318.585 1834.34 306.257 1842.04 296.851C1844.53 293.791 1853.08 288.433 1857.29 287.34C1861.06 286.373 1861.5 284.866 1858.37 283.65C1854.92 282.309 1849.15 281.249 1844.94 281.237Z" fill="#515050"/>
<path d="M1822.84 347.258C1819.96 347.142 1819.53 348.045 1817.17 358.309L1814.93 367.991L1792.43 370.553C1780.07 372.012 1762.56 373.978 1753.54 375.045C1744.6 376.071 1736.83 377.18 1736.29 377.453C1735.48 377.942 1732.81 389.961 1718.72 456.251C1709.59 499.247 1701.97 534.284 1701.77 534.13C1701.5 533.964 1698.58 531.798 1695.26 529.27C1689.99 525.281 1688.72 524.569 1685.98 524.043C1679.79 522.728 1670.25 526.829 1664.22 533.442C1662.83 534.968 1661.28 536.128 1660.82 536.032C1660.37 535.935 1658.64 534.574 1657.07 533.026C1651.2 527.418 1642.09 523.055 1633.06 521.413L1628.2 520.546L1608.9 609.74C1575.18 765.376 1551.73 876.047 1552.11 877.342C1552.41 878.178 1553.09 878.599 1555.02 879.009C1556.95 879.419 1557.75 879.312 1558.36 878.669C1558.9 878.067 1566.23 844.403 1581.25 773.676C1596.42 702.263 1603.55 669.55 1603.99 669.423C1605.02 669.088 1750.81 666.771 1751.16 667.067C1751.31 667.209 1743.17 707.213 1733.04 756.015C1720.29 817.453 1714.75 844.927 1715.1 845.499C1715.7 846.566 1720.7 847.628 1721.63 846.887C1722.12 846.549 1729.13 814.917 1741.46 758.024C1751.96 709.412 1760.84 669.564 1761.11 669.401C1761.58 669.169 1891.51 729.23 1894.4 731.003C1895.24 731.513 1894.13 737.019 1873.08 836.11L1850.85 940.748L1852.09 941.895C1853.08 942.823 1853.8 943.085 1855.31 942.964L1857.23 942.875L1895.2 764.13L1933.18 585.332L1928.67 584.208C1919.93 582.021 1909.25 582.291 1901.73 585C1899.67 585.776 1897.54 586.316 1897.08 586.22C1896.63 586.123 1895.63 584.367 1894.94 582.342C1893.12 577.208 1888.47 570.59 1884.67 567.795C1879.85 564.232 1877.35 563.977 1868.31 566.031C1864.25 566.99 1860.75 567.793 1860.5 567.85C1860.2 567.896 1867.48 532.786 1876.6 489.843C1885.72 446.9 1893.02 411.409 1892.83 410.926C1892.62 410.496 1877.23 401.098 1858.56 390.066L1824.59 370.042L1826.49 360.234C1828.19 351.706 1828.31 350.297 1827.6 349.429C1826.67 348.237 1824.6 347.356 1822.84 347.258ZM1811.13 386.726L1808.54 398.099L1780.43 401.623C1764.99 403.588 1752 405.244 1751.61 405.383C1751.04 405.539 1747.84 419.764 1739.05 461.176L1727.24 516.743L1720.17 520.982C1716.1 523.374 1712.85 525.001 1712.55 524.718C1712.15 524.357 1716.13 504.777 1726.92 454.017L1741.83 383.818L1745.36 383.408C1747.25 383.149 1762.98 381.19 1780.24 379.006C1797.52 376.768 1812.12 375.068 1812.7 375.136C1813.62 375.276 1813.51 376.081 1811.13 386.726ZM1853.91 395.482C1869.99 404.972 1883.55 413.261 1884.03 413.804C1884.77 414.789 1883.97 418.816 1870.05 484.366C1861.92 522.608 1854.98 554.147 1854.61 554.509C1853.65 555.409 1852.58 554.298 1848.15 547.781L1844.15 542.018L1856.05 485.975C1867.45 432.31 1867.91 429.868 1867.05 429.187C1866.53 428.803 1855.39 422.295 1842.33 414.773C1828.73 406.971 1818.37 400.686 1818.08 400.126C1817.49 399.006 1821.63 378.082 1822.53 377.499C1822.79 377.389 1823.37 377.457 1823.79 377.712C1824.27 377.979 1837.76 385.98 1853.91 395.482ZM1819.85 409.943C1820.61 410.546 1821.63 411.645 1822.12 412.411C1823.01 413.814 1822.84 414.607 1810.8 471.283L1798.59 528.752L1796.93 529.836C1795.14 531.001 1790.88 531.53 1790.27 530.74C1789.87 530.103 1811.88 424.535 1814.38 415.295C1816.15 408.935 1816.37 408.431 1817.4 408.648C1817.96 408.769 1819.09 409.339 1819.85 409.943ZM1794.33 467.785L1781.48 528.264L1777.5 527.42L1773.53 526.575L1786.09 466.588C1793.04 433.616 1798.9 406.319 1799.15 405.986C1799.42 405.547 1800.64 405.641 1803.35 406.326L1807.18 407.305L1794.33 467.785ZM1790.76 408.842C1790.83 409.354 1790.03 413.985 1788.93 419.162C1787.42 426.24 1786.74 428.633 1786.08 428.935C1784.62 429.673 1753.87 433.3 1753.37 432.862C1753.07 432.579 1753.75 428.305 1755.09 421.966L1757.31 411.508L1772.76 409.489C1781.19 408.355 1788.72 407.579 1789.34 407.712C1790.03 407.804 1790.69 408.331 1790.76 408.842ZM1845.68 424.704L1859.75 432.22L1857.48 442.943C1855.31 453.137 1855.14 453.653 1854.12 453.436C1852.7 453.135 1826.72 439.336 1825.96 438.456C1825.47 437.966 1825.87 435.236 1827.38 428.158C1829.42 418.545 1829.96 416.838 1831.04 417.067C1831.32 417.127 1837.89 420.566 1845.68 424.704ZM1784.59 437.894C1784.66 438.405 1780.85 457.193 1776.06 479.747L1767.36 520.683L1765.65 521.479C1758.11 525.121 1754.85 527.63 1752.15 531.916C1750.38 534.686 1749.33 534.574 1747.21 531.419C1745.29 528.471 1740.6 523.721 1737.18 521.116L1734.46 519.104L1742.81 479.805L1751.15 440.506L1766.59 438.541C1775.01 437.459 1782.53 436.684 1783.17 436.764C1783.86 436.855 1784.52 437.382 1784.59 437.894ZM1839.81 454.039L1853.38 462.222L1845.04 501.468L1836.71 540.714L1834.74 541.015C1831.49 541.537 1823.93 544.404 1820.59 546.454C1818.83 547.461 1817.01 548.232 1816.55 548.136C1816.1 548.039 1815.53 546.814 1815.27 545.214C1814.36 539.997 1811.98 535.572 1807.05 529.998L1806 528.781L1814.69 487.898C1819.47 465.397 1823.62 446.681 1823.89 446.242C1824.16 445.803 1824.81 445.554 1825.32 445.663C1825.83 445.771 1832.34 449.526 1839.81 454.039ZM1773.42 532.68C1779.76 538.056 1779.42 536.55 1776.8 548.91C1775.55 554.773 1774.41 559.608 1774.29 559.584C1774.12 559.548 1741.37 560.043 1701.47 560.676C1661.57 561.308 1628.43 561.666 1627.81 561.48C1626.77 561.093 1626.81 560.605 1629.84 545.515C1632.06 534.504 1633.24 529.787 1633.8 529.408C1634.92 528.597 1637.51 529.258 1642.32 531.494C1648.19 534.288 1651.42 536.961 1655.15 542.059C1659.91 548.701 1661.16 548.69 1666.67 542.022C1673 534.313 1678.6 530.589 1683.2 531.014C1685.35 531.196 1686.66 532.026 1696.13 538.841C1701.89 543.045 1707 546.393 1707.48 546.331C1707.97 546.269 1708.75 545.11 1709.34 543.467C1711.8 536.647 1716.64 531.163 1723.73 527.147C1727.23 525.186 1728.11 524.933 1729.93 525.319C1734.42 526.272 1739.68 531.695 1742.1 537.895L1743.53 541.511L1748.67 542.438L1753.82 543.366L1756.77 538.417C1761.1 531.167 1764.51 528.247 1767.92 528.971C1768.77 529.152 1771.2 530.828 1773.42 532.68ZM1804.83 537.918C1806.75 540.091 1807.75 543.175 1808.45 549.396L1809.13 555.117L1814.21 556.361L1819.29 557.605L1822.06 554.882C1826.87 550.161 1833.81 547.385 1838.35 548.35C1840.39 548.784 1840.88 549.275 1844.02 553.804C1848.19 559.879 1849.64 564.494 1849.69 571.516C1849.72 574.724 1849.99 576.547 1850.48 576.762C1850.92 576.911 1856.59 575.908 1863.06 574.522C1869.59 573.147 1875.82 572.042 1876.97 572.177C1882.23 572.577 1887.45 580.42 1889.77 591.292C1891.08 597.421 1893.05 597.949 1899.81 594.032C1905.29 590.889 1909.33 589.76 1915.83 589.596C1921.13 589.508 1923.77 589.957 1924.46 591.154C1924.82 591.725 1923.98 596.515 1921.53 607.478C1918.16 622.496 1918.01 622.959 1916.89 622.888C1916.26 622.808 1886.11 609.063 1849.93 592.212C1813.78 575.425 1784.06 561.659 1783.89 561.623C1783.72 561.587 1784.64 556.703 1785.88 550.84C1788.52 538.427 1787.67 539.627 1795.57 537.385C1801.2 535.765 1803.01 535.875 1804.83 537.918ZM1772.7 567.637C1773.29 568.481 1770.37 583.371 1769.39 584.324C1769.1 584.592 1762.88 584.817 1755.58 584.812C1745.49 584.821 1742.15 584.609 1741.67 584.065C1740.77 582.991 1744.06 567.238 1745.27 566.834C1746.03 566.609 1769.56 566.474 1771.29 566.73C1771.76 566.774 1772.38 567.183 1772.7 567.637ZM1795.39 574.554C1801.84 577.416 1807.21 579.826 1807.38 579.862C1807.49 579.886 1806.75 583.924 1805.7 588.89C1803.96 597.077 1803.68 597.845 1802.83 597.664C1800.38 597.145 1778.56 586.989 1778.3 586.271C1777.9 585.358 1780.85 570.914 1781.63 569.755C1781.9 569.315 1782.49 569.054 1782.89 569.139C1783.34 569.235 1788.95 571.64 1795.39 574.554ZM1735.16 575.891C1734.08 582.619 1733.66 584.35 1732.92 584.746C1731.72 585.374 1700.5 585.919 1700.04 585.27C1699.86 585.01 1700.34 581.082 1701.08 576.491C1702.17 569.934 1702.67 568.162 1703.3 567.966C1704.52 567.561 1733.19 566.973 1734.96 567.294L1736.51 567.567L1735.16 575.891ZM1831.26 591.228C1838.76 594.754 1845.14 597.985 1845.37 598.31C1846.05 599.283 1841.75 615.318 1840.79 615.389C1840.41 615.475 1833.58 612.423 1825.54 608.671L1810.97 601.822L1812.52 593.651C1813.42 589.149 1814.32 585.2 1814.51 584.854C1815.2 583.842 1816.79 584.456 1831.26 591.228ZM1693.34 577.165L1691.5 585.828L1675.4 586.162C1666.58 586.331 1658.74 586.323 1658.11 586.243C1656.92 585.99 1656.92 585.714 1658.27 577.389C1659.03 572.693 1659.87 568.731 1660.09 568.556C1660.83 568.108 1692.21 567.652 1693.79 568.043L1695.19 568.45L1693.34 577.165ZM1869.4 608.936L1883.99 615.732L1882.29 624.537C1880.97 631.322 1880.41 633.411 1879.81 633.449C1878.96 633.544 1850.28 620.441 1849.23 619.501C1848.73 619.064 1849.05 616.756 1850.26 611.052C1852.05 602.6 1852.45 601.58 1853.92 601.894C1854.42 602.055 1861.41 605.196 1869.4 608.936ZM1767.46 592.857C1767.89 594.216 1764.89 608.872 1764.01 609.678C1763.33 610.361 1737.15 610.376 1736.1 609.712C1735.57 609.433 1735.9 607.296 1737.46 600.506L1739.51 591.721L1752.87 591.689C1760.24 591.653 1766.4 591.693 1766.64 591.689C1766.88 591.684 1767.23 592.256 1767.46 592.857ZM1790.82 600.248L1801.88 605.468L1800.35 613.533C1799.34 618.563 1798.57 621.602 1798.23 621.53C1797.89 621.457 1792.74 619.149 1786.7 616.319C1780.64 613.542 1775.18 611.003 1774.59 610.711C1773.45 610.194 1773.49 609.759 1774.62 602.491C1775.27 598.27 1776.06 594.573 1776.37 594.251C1776.97 593.661 1776.42 593.435 1790.82 600.248ZM1650.78 577.73C1649.12 585.548 1648.81 586.421 1647.9 586.505C1641.83 586.871 1621.8 586.702 1621.53 586.312C1621.3 585.988 1622.03 582.002 1623.07 577.366L1625.03 569.004L1636.97 568.67C1643.53 568.518 1649.77 568.517 1650.79 568.734L1652.62 569.068L1650.78 577.73ZM1904.74 625.33C1910.68 628.084 1915.8 630.55 1916.09 630.834C1916.74 631.413 1913.42 647.048 1912.45 648.001C1911.85 648.591 1910.1 647.888 1899.99 643.202C1893.52 640.17 1888.1 637.419 1887.94 637.054C1887.53 636.194 1890.85 620.559 1891.47 620.192C1892.28 619.703 1893.77 620.24 1904.74 625.33ZM1730.51 596.655C1729.65 604.036 1728.3 609.822 1727.45 610.193C1726.07 610.838 1696.21 611.12 1695.27 610.533C1694.43 610.023 1694.56 609.113 1696.31 601.425L1698.31 592.852L1713.83 592.45C1722.36 592.273 1729.74 592.185 1730.18 592.334C1730.78 592.572 1730.91 593.648 1730.51 596.655ZM1826.2 616.707L1839.73 622.892L1838.28 630.535C1837.42 634.878 1836.5 638.381 1836.16 638.585C1835.75 638.829 1829.98 636.388 1820.62 632.083L1805.7 625.214L1807.35 617.449C1808.26 613.171 1809.21 609.51 1809.42 609.387C1809.69 609.224 1810.54 609.405 1811.29 609.785C1812.04 610.166 1818.8 613.258 1826.2 616.707ZM1688.58 601.771C1687.55 608.616 1687.12 610.347 1686.38 610.743C1685.56 611.232 1654.31 611.935 1652.44 611.537C1651.59 611.356 1651.66 610.158 1652.88 602.743C1653.65 597.994 1654.55 594.045 1654.84 593.829C1655.58 593.38 1687.91 592.63 1689.08 592.989C1689.74 593.24 1689.69 594.884 1688.58 601.771ZM1863.94 634.107L1878.92 640.988L1877.26 648.806C1876.19 653.824 1875.34 656.733 1874.89 656.86C1874.25 657.109 1845.66 644.137 1844.08 642.918C1843.52 642.468 1843.72 640.965 1845.16 634.756C1847 626.922 1847.27 626.207 1848.33 626.818C1848.65 626.996 1855.66 630.307 1863.94 634.107ZM1785.6 623.429L1796.93 628.762L1795 638.675C1793.48 646.411 1792.91 648.553 1792.34 648.432C1790.12 647.962 1768.24 637.517 1767.82 636.71C1767.22 635.643 1770.27 619.895 1771.31 618.35C1772.08 617.243 1773.19 617.59 1785.6 623.429ZM1762.34 618.1C1762.59 619.424 1759.4 633.873 1758.73 634.503C1758.07 635.134 1731.76 635.73 1730.76 635.131C1729.82 634.544 1733.29 617.946 1734.43 617.582C1735.38 617.288 1759.89 616.753 1761.21 616.978C1761.72 617.086 1762.27 617.589 1762.34 618.1ZM1645.3 602.954C1643.71 611.007 1643.48 611.787 1642.52 611.858C1637.94 612.156 1616.52 612.133 1616.18 611.784C1615.93 611.565 1616.55 607.503 1617.56 602.749L1619.42 594.033L1621.08 594.001C1621.97 594.024 1627.65 593.849 1633.73 593.707C1639.82 593.564 1645.28 593.565 1645.89 593.75C1646.95 594.085 1646.91 594.52 1645.3 602.954ZM1899.17 650.425C1905.13 653.125 1910.29 655.657 1910.63 656.005C1911.48 657.015 1908.3 671.74 1907.14 671.88C1905.91 672.061 1883.43 661.379 1883.04 660.413C1882.84 659.983 1883.37 656.343 1884.21 652.381C1885.73 645.251 1886.15 644.401 1887.82 645.197C1888.14 645.375 1893.22 647.724 1899.17 650.425ZM1819.89 639.435C1827.46 642.92 1833.96 646.123 1834.29 646.524C1835.08 647.575 1830.58 665.389 1829.48 665.541C1828.7 665.596 1801.9 653.444 1800.48 652.314C1799.7 651.763 1799.88 650.642 1801.66 643.401C1803.93 634.112 1804.39 632.775 1805.41 632.992C1805.75 633.064 1812.32 635.95 1819.89 639.435ZM1725.01 623.089C1724.65 625.884 1723.94 629.817 1723.44 631.865L1722.49 635.526L1706.45 635.873C1697.63 636.041 1690.28 635.972 1690.04 635.7C1689.86 635.44 1690.43 631.366 1691.3 626.693L1692.93 618.206L1708.45 617.804C1716.97 617.627 1724.35 617.539 1724.79 617.688C1725.45 617.938 1725.49 619.161 1725.01 623.089ZM1859.08 657.531L1873.65 664.38L1871.55 673.982C1870.43 679.264 1869.25 683.705 1868.98 683.868C1868.63 684.125 1848.53 675.054 1839.02 670.383L1837.25 669.509L1839.31 659.79L1841.39 650.018L1842.98 650.356C1843.83 650.537 1851.09 653.791 1859.08 657.531ZM1683.41 627.502L1681.68 636.241L1664.33 636.587C1654.74 636.757 1646.75 636.66 1646.62 636.413C1646.44 636.153 1646.88 632.107 1647.62 627.516C1648.94 619.626 1649.05 619.098 1650.15 618.946C1652.6 618.583 1682.91 618.121 1683.98 618.403C1685.04 618.738 1685.01 619.173 1683.41 627.502ZM1756.77 642.642C1757.41 643.551 1754.43 658.377 1753.46 659.329C1752.64 660.094 1725.75 660.399 1725.25 659.685C1725.02 659.361 1725.75 655.375 1726.78 650.792L1728.74 642.429L1742.16 642.133C1749.55 641.992 1755.7 641.808 1755.93 641.856C1756.11 641.84 1756.45 642.188 1756.77 642.642ZM1893.94 673.658C1900.07 676.395 1905.35 678.898 1905.68 679.299C1906.11 679.778 1905.77 682.243 1904.16 689.244L1902.02 698.505L1900.56 698.362C1899.76 698.246 1894.13 695.946 1888.01 693.21L1876.9 688.201L1878.84 678.235C1880.67 669.073 1880.88 668.345 1881.79 668.538C1882.36 668.659 1887.8 670.975 1893.94 673.658ZM1777.57 649.491C1782.97 652.018 1788.32 654.48 1789.45 655.05L1791.44 656.025L1789.65 664.423C1788.68 669.019 1787.68 672.891 1787.36 672.989C1786.6 673.214 1762.64 661.942 1762.33 661.158C1761.92 660.298 1765.13 645.192 1765.74 644.825C1766.5 644.324 1767.43 644.687 1777.57 649.491ZM1639.78 628.114L1637.93 636.829L1625 637.063C1617.84 637.2 1611.69 637.108 1611.22 636.788C1610.53 636.42 1610.72 634.969 1612.22 627.891L1614.03 619.387L1615.7 619.355C1616.58 619.378 1622.26 619.203 1628.34 619.061C1634.43 618.918 1639.89 618.919 1640.5 619.104C1641.56 619.439 1641.54 619.821 1639.78 628.114ZM1828.1 672.867C1828.84 673.3 1825.54 689.987 1824.58 690.281C1824.26 690.379 1817.41 687.433 1809.36 683.681L1794.71 676.925L1796.53 668.368C1797.53 663.667 1798.49 659.73 1798.69 659.608C1799.02 659.457 1825.94 671.58 1828.1 672.867ZM1720.61 644.347C1720.64 645.07 1719.85 649.044 1718.91 653.204L1717.12 660.774L1701.51 660.771C1692.92 660.712 1685.61 660.483 1685.19 660.228C1684.55 659.872 1684.73 658.199 1686.19 651.332L1687.99 642.828L1689.66 642.796C1695.75 642.653 1718.23 642.736 1719.26 642.9C1720.18 643.04 1720.55 643.507 1720.61 644.347ZM1680.1 644.794C1680.17 645.305 1679.53 649.145 1678.64 653.318C1677.07 660.712 1676.96 660.964 1675.67 661.186C1672.59 661.693 1641.77 661.217 1641.4 660.698C1641.17 660.374 1641.86 656.323 1642.89 651.74L1644.84 643.378L1660.87 643.36C1678.5 643.351 1679.84 643.47 1680.1 644.794ZM1851.52 683.637C1859.38 687.129 1866.35 690.376 1867.03 690.797C1868.23 691.603 1868.21 691.655 1866.33 699.701C1865.26 704.166 1864.21 707.974 1863.88 708.125C1863.47 708.422 1856.56 705.464 1837.27 696.785L1831.41 694.162L1833.18 685.869C1834.15 681.273 1835.15 677.401 1835.41 677.291C1836.11 676.83 1836.61 676.992 1851.52 683.637ZM1636.43 644.683C1637.21 645.786 1634.01 660.84 1632.9 661.321C1631.59 661.925 1606.84 662.188 1605.95 661.613C1605.31 661.257 1605.45 659.795 1606.9 652.928C1608.46 645.586 1608.77 644.712 1609.74 644.589C1610.55 644.428 1634.12 643.859 1635.59 643.897C1635.77 643.88 1636.12 644.228 1636.43 644.683ZM1887.65 700.476C1893.45 703.088 1898.7 705.749 1899.36 706.276C1900.39 707.268 1900.38 707.597 1898.75 715.256C1897.37 721.753 1896.89 723.196 1896.16 723.263C1895.68 723.325 1889.95 720.949 1883.53 717.928L1871.74 712.499L1872.96 704.532C1873.59 700.14 1874.36 696.272 1874.6 695.939C1875.29 694.926 1876.11 695.266 1887.65 700.476Z" fill="#515050"/>
<path d="M1670.29 705.203L1634.23 707.313L1618.8 779.942L1603.37 852.57L1606.21 853.174L1609.05 853.777L1622.02 794.15L1634.98 734.523L1662.99 734.013C1678.41 733.757 1691.8 733.619 1692.73 733.707L1694.47 733.91L1683.48 786.45C1675.53 824.176 1672.57 839.225 1672.91 839.85C1673.53 840.864 1677.89 841.846 1678.98 841.194C1679.59 840.827 1683.14 824.964 1694.18 772.989C1702.09 735.75 1708.47 704.867 1708.4 704.355C1708.33 703.843 1707.79 703.341 1707.26 703.285C1706.75 703.177 1690.12 704.06 1670.29 705.203ZM1697.98 718.206L1696.27 725.406L1667.12 727.108C1651.08 728.007 1637.66 728.632 1637.35 728.401C1636.81 728.122 1637.06 726.132 1638.12 721.114C1639.42 715.039 1639.71 714.218 1640.7 714.042C1643.34 713.61 1697.22 710.592 1698.37 710.781C1699.69 711.005 1699.69 711.005 1697.98 718.206Z" fill="#515050"/>
<path d="M1785.13 720.379C1784.29 721.25 1756.5 856.834 1757.02 857.719C1757.67 858.85 1761.05 859.457 1762.28 858.67C1763.23 858.1 1764.52 852.578 1774.47 805.778C1784.53 758.398 1785.63 753.498 1786.55 753.362C1787.34 753.255 1838.96 777.689 1839.46 778.402C1839.49 778.52 1834.2 804.556 1827.65 836.232C1821.16 867.92 1815.73 894.59 1815.71 895.524C1815.63 896.998 1815.91 897.388 1817.6 898.078C1818.8 898.555 1819.85 898.667 1820.32 898.381C1820.87 898.055 1825.38 878.202 1836.58 826.868C1845.07 787.764 1852 755.397 1852 754.845C1851.93 754.333 1851.53 753.696 1851.01 753.364C1849.49 752.434 1786.67 720.1 1786.16 719.991C1785.88 719.931 1785.42 720.11 1785.13 720.379ZM1817.26 743.489C1831.3 750.612 1843.11 756.764 1843.45 757.113C1843.82 757.579 1843.6 759.74 1842.61 764.388C1841.43 769.987 1841.1 770.967 1840.19 771.05C1839.09 771.202 1788.59 745.735 1787.81 744.632C1787.08 743.593 1789.28 731.86 1790.33 731.09C1790.82 730.752 1791.3 730.467 1791.41 730.491C1791.52 730.515 1803.16 736.355 1817.26 743.489Z" fill="#515050"/>
<path d="M1714.37 866.543C1706.09 865.834 1697.41 866.75 1684.12 869.779C1659.22 875.529 1639.02 884.82 1616.26 900.906C1610.8 904.771 1605.01 908.565 1603.44 909.279C1600.67 910.568 1555.87 926.444 1444.66 965.423C1416.45 975.274 1392.9 983.629 1392.36 983.903C1390.54 984.95 1392.81 984.881 1404.36 983.581C1463.63 977.015 1532.18 976.781 1586.06 982.983C1598.05 984.371 1630.81 990.833 1641.03 993.833C1651.6 996.906 1661.98 1000.55 1662.76 1001.37C1663.55 1002.37 1563.19 1474.85 1561.72 1476.75C1561.15 1477.46 1544.1 1488.13 1523.72 1500.53C1493.52 1518.9 1486.29 1523.05 1484.49 1523.16C1483.06 1523.19 1455.81 1517.62 1404.92 1506.82C1362.38 1497.78 1327.42 1490.52 1327.26 1490.7C1326.59 1491.34 1348.46 1555.77 1349.46 1556.37C1351.13 1557.44 1480.3 1584.77 1482.49 1584.52C1483.83 1584.36 1499.67 1574.36 1536.96 1549.99C1565.9 1531.08 1590.17 1514.92 1590.88 1514.08C1592.06 1512.73 1602.8 1476.15 1663.68 1265.83C1702.95 1130.15 1735.43 1018.58 1735.82 1017.89C1736.67 1016.41 1737.37 1016.45 1750.2 1017.8C1763.66 1019.28 1796.54 1026.26 1810.4 1030.58C1860.1 1046.17 1901.55 1063.69 1951.47 1090.2C1961.28 1095.43 1985.6 1108.93 1989.33 1111.21C1989.8 1111.53 1990.26 1111.57 1990.33 1111.26C1990.38 1110.99 1984.35 1105.02 1976.99 1098.05C1941.27 1064.46 1836.34 965.212 1831.87 960.84C1827.44 956.532 1826.14 954.821 1821.68 947.028C1807.35 922.288 1789.55 902.165 1767.28 885.732C1757.48 878.462 1750.55 874.781 1742.61 872.487C1734.62 870.128 1719.84 867.044 1714.37 866.543Z" fill="#515050"/>
<path d="M1176.74 991.648C1055.41 990.827 1063.19 991.099 1049.58 986.993C1017.54 977.427 981.036 975.745 952.218 982.597C942.097 984.973 932.369 989.973 918.521 999.839C906.429 1008.42 892.443 1031.23 883.504 1056.82C880.698 1065 876.144 1087 875.317 1096.76C874.756 1103.88 874.497 1105.09 872.85 1108.94C871.09 1113.31 817.294 1232.99 797.344 1277.17C791.417 1290.26 786.631 1301.34 786.677 1301.68C786.712 1302.07 794.297 1293.47 803.488 1282.61C821.316 1261.56 833.588 1247.94 845.387 1235.98C886.165 1194.63 925.389 1163.1 958.244 1145.35C968.981 1139.51 983.03 1132.89 984.109 1133.12C984.734 1133.26 1050.61 1225.53 1093.82 1286.71L1104.68 1302.1L1082.19 1310.74C1069.79 1315.45 1052.96 1321.75 1044.72 1324.75C1035.2 1328.25 1029.73 1330.51 1029.73 1331.06C1029.7 1332.05 1034.99 1336.76 1058.98 1356.82C1074.14 1369.59 1077.17 1372.33 1076.97 1373.28C1076.84 1373.91 1073.41 1377.21 1069.42 1380.62C1049.09 1397.78 1028.38 1418.44 1010.4 1439.4C1006.6 1443.84 1003.13 1447.63 1002.66 1447.86C1002.01 1448.17 996.073 1445.91 980.834 1439.69C969.367 1434.99 952.048 1427.95 942.366 1424.07C920.82 1415.41 919.604 1414.71 915.481 1409.53L913.272 1406.79L904.952 1412.15C900.351 1415.09 896.566 1417.82 896.476 1418.24C896.24 1419.35 903.485 1429.11 905.703 1430.69C907.511 1431.96 939.286 1445.28 970.56 1457.88C979.424 1461.42 987.015 1464.52 987.379 1464.77C987.697 1464.95 987.948 1465.44 987.87 1465.81C987.454 1467.49 970.488 1492.59 969.535 1492.88C968.764 1493.16 963.197 1491.7 949.553 1487.76C939.158 1484.72 928.422 1481.61 925.616 1480.85C916.073 1478.27 912.287 1475.98 905.696 1468.72C900.061 1462.56 900.004 1462.55 892.381 1469.65C888.757 1473.02 885.983 1476.02 885.815 1476.81C885.59 1477.87 886.854 1479.46 893.285 1486.07C897.576 1490.46 901.877 1494.52 902.832 1495.06C905.22 1496.39 911.741 1498.38 935.587 1505.16C948.357 1508.76 956.207 1511.2 956.583 1511.66C956.993 1512.25 955.039 1516.14 948.1 1528.69C943.116 1537.62 938.73 1545.13 938.39 1545.34C937.982 1545.58 930.79 1543.39 919.041 1539.46L900.305 1533.22L898.654 1530.93C897.731 1529.69 896.434 1528.53 895.752 1528.39C893.821 1527.98 877.717 1534.49 877.448 1535.76C877.156 1537.13 882.725 1548.64 884.055 1549.36C884.646 1549.65 894.815 1553.19 906.734 1557.16C918.596 1561.12 928.482 1564.6 928.675 1564.8C928.857 1565.06 926.567 1570.81 923.598 1577.53C909.386 1609.78 897.741 1642.53 890.905 1669.12C889.252 1675.5 888.316 1678.23 887.828 1678.29C886.966 1678.44 636.412 1609.76 635.025 1609.02C633.798 1608.38 633.751 1607.76 634.453 1598.03C635.738 1580.8 641.587 1554.38 649.855 1528.59C664.679 1482.28 687.911 1434.11 720.579 1382.04C723.813 1376.87 726.378 1372.34 726.343 1371.94C726.251 1371.54 725.299 1372.11 724.11 1373.23C715.446 1381.61 611.633 1479.68 579.139 1510.26L567.428 1521.24L557.088 1526.61C529.82 1540.69 510.059 1556.03 494.509 1575.31C482.682 1589.91 481.768 1591.98 477.392 1612.58L473.913 1628.95L475.008 1635.54C478.018 1654.06 483.37 1669.66 492.711 1687.16C497.262 1695.63 510.547 1714.68 517.72 1723.11C520.771 1726.63 523.699 1730.45 524.281 1731.62C526.836 1736.64 575.129 1849.63 574.789 1849.84C574.585 1849.96 573.109 1850.2 571.543 1850.31C567.423 1850.7 567.335 1851.67 571.351 1855.4C576.256 1859.97 581.812 1866.51 583.694 1869.94C584.652 1871.58 590.977 1885.96 597.863 1901.88C604.68 1917.85 610.503 1930.95 610.843 1931.03C611.127 1931.09 611.308 1930.79 611.273 1930.4C611.17 1930.05 610.117 1922.15 608.823 1912.88L606.589 1896.01L615.008 1889.62C619.62 1886.08 623.528 1882.77 623.652 1882.19C623.877 1881.41 622.704 1879.94 619.768 1877C615.773 1873.17 614.85 1871.65 616.12 1871.26C616.381 1871.15 676.959 1871.26 750.672 1871.58C824.329 1871.88 885.656 1872.1 886.86 1872.02C888.052 1872 889.186 1871.69 889.435 1871.35C889.616 1871.06 889.598 1868.63 889.387 1865.99C888.707 1857.18 888.468 1838.74 888.822 1825.9C889.584 1799.4 892.034 1775.57 897.432 1741.78L898.618 1734.52L917.938 1738.29C933.328 1741.29 1125.21 1781.6 1129.07 1782.7C1130.64 1783.14 1180.65 1853.67 1181.14 1856.14C1181.48 1857.87 1179.12 1870.12 1166.58 1930.83C1151.87 2002.01 1151.61 2003.5 1152.75 2003.47C1154.91 2003.38 1218.94 1986.12 1220.18 1985.28C1221.31 1984.47 1222.16 1980.73 1234.42 1923C1242.38 1885.55 1247.36 1860.99 1247.25 1860.08C1246.94 1858.47 1170.92 1758.36 1168.64 1756.55C1167.41 1755.62 1141.42 1748.34 1038.67 1720.11C968.011 1700.68 910.05 1684.61 909.913 1684.42C909.56 1683.85 913.497 1669.23 917.471 1656.1C932.132 1608.04 952.691 1562.4 978.888 1519.55C1016.49 1458.2 1064.55 1407.19 1124.72 1364.76C1129.39 1361.51 1135.02 1357.62 1137.35 1356.18L1141.54 1353.49L1205.02 1442.77C1239.94 1491.86 1270.42 1534.77 1272.74 1538.08L1276.93 1544.05L1267.87 1586.73L1258.8 1629.41L1250.8 1634.39C1246.37 1637.09 1216.72 1655.08 1184.96 1674.39C1147.42 1697.17 1127.16 1709.81 1127.15 1710.42C1127.11 1711.73 1189.37 1743.34 1191.45 1743.07C1193.34 1742.81 1303.08 1676.08 1304.06 1674.52C1305.09 1673.03 1324.75 1552.55 1324.37 1550.43C1324.24 1549.63 1317.87 1538.84 1310.23 1526.45C1302.59 1514.06 1272.23 1464.5 1242.69 1416.32C1213.1 1368.14 1188.62 1328.6 1188.24 1328.41C1187.32 1327.99 1187.48 1326.98 1188.68 1326.07C1189.11 1325.72 1193.58 1323.41 1198.48 1320.98C1279.12 1281.14 1371.83 1256.61 1478.57 1246.99L1497.22 1245.27L1497.29 1243.57C1497.34 1241.93 1478.56 1144.53 1478.05 1143.82C1477.92 1143.62 1477.46 1143.53 1476.97 1143.59C1476 1143.71 1444.18 1173.06 1443.97 1174.06C1443.81 1174.8 1456.74 1187.15 1457.99 1187.42C1458.39 1187.5 1459.83 1187.14 1461.18 1186.66C1462.53 1186.17 1463.75 1185.99 1463.98 1186.32C1464.16 1186.57 1466.01 1195.47 1468.09 1206.07C1470.91 1220.47 1471.63 1225.48 1471.1 1226.03C1470.65 1226.43 1465.85 1227.23 1460.38 1227.84C1434.15 1230.6 1405.55 1234.79 1381.42 1239.38C1364.6 1242.55 1326.32 1251.47 1310.86 1255.81C1303.72 1257.82 1297.6 1259.28 1297.15 1259.13C1296.72 1258.93 1293.11 1253.03 1289.21 1245.96C1283.16 1235.02 1191.25 1068.65 1175.1 1039.33C1172.1 1033.89 1169.67 1029.12 1169.75 1028.75C1169.83 1028.38 1173.48 1026.84 1177.78 1025.32C1208.66 1014.6 1238.84 1005.83 1274.56 997.246C1283.38 995.091 1290.65 993.268 1290.69 993.11C1290.71 993.004 1290.17 992.778 1289.47 992.686C1288.73 992.529 1238.02 992.079 1176.74 991.648ZM1152.91 1050.73C1148.63 1060.81 1145.06 1069.55 1144.93 1070.13C1144.82 1070.65 1144.97 1071.35 1145.32 1071.64C1146.16 1072.43 1162.86 1078.79 1163.71 1078.7C1164.57 1078.55 1166.22 1076.08 1166.59 1074.34C1166.97 1072.55 1168.57 1072.55 1169.85 1074.37C1172.24 1077.92 1275.57 1265.48 1275.43 1266.11C1275.27 1266.85 1275.74 1266.62 1256.66 1273.44C1233.73 1281.65 1209.78 1291.86 1188.83 1302.42C1175.15 1309.29 1175.72 1309.13 1174.69 1306.15C1174.47 1305.5 1145.54 1258.12 1110.35 1200.79C1071.44 1137.49 1046.44 1096.18 1046.49 1095.42C1046.8 1091.46 1075.79 1071.5 1099.18 1059.19C1115.89 1050.38 1160.61 1030.4 1160.68 1031.74C1160.72 1032.13 1157.19 1040.66 1152.91 1050.73ZM1119.48 1321.81C1120.16 1323.66 1126.01 1331.86 1128.21 1334.09L1129.63 1335.5L1113.1 1347.11C1104.02 1353.52 1096.05 1358.9 1095.43 1359.04C1094.25 1359.29 1089.98 1355.89 1073.32 1341.59C1071.86 1340.34 1070.85 1338.97 1070.86 1338.36C1070.91 1337.55 1075.8 1335.49 1094.29 1328.65C1107.17 1323.88 1117.96 1320.05 1118.25 1320.06C1118.59 1320.13 1119.14 1320.91 1119.48 1321.81ZM876.266 1735.24C875.797 1738.28 874.725 1745.56 873.775 1751.43C869.843 1777.21 867.277 1808.85 866.864 1838.73C866.787 1844.4 866.584 1849.55 866.461 1850.13C866.338 1850.71 865.635 1851.23 864.897 1851.35C861.912 1851.7 602.264 1850.43 601.99 1850.04C601.523 1849.44 600.714 1834.53 600.409 1821.71C599.465 1780.05 603.071 1737.38 610.049 1708.72C613.139 1695.85 618.059 1679.67 619.327 1677.9C620.085 1676.84 620.312 1676.89 630.489 1679C766.439 1707.1 875.9 1729.69 876.423 1729.75C876.831 1729.78 876.802 1731.6 876.266 1735.24Z" fill="#515050"/>
<path d="M2071.12 1174.07C2071.36 1174.35 2077.61 1179.32 2085.05 1185.09C2124.33 1215.57 2154.24 1242.46 2185.19 1275.31C2212.16 1303.96 2234.39 1334.01 2247.76 1359.93C2250.91 1366.06 2251.26 1367.19 2250.42 1368.34C2250.07 1368.87 2225.18 1383.51 2195.02 1400.84C2128.96 1438.86 2127.05 1440.01 2126.95 1440.48C2126.81 1441.17 2123.85 1442.53 2122.37 1442.49C2119.99 1442.53 2089.08 1440.22 2085.04 1439.69L2081.33 1439.24L2075.43 1430.42C2072.18 1425.59 2069.23 1421.6 2068.89 1421.52C2068.55 1421.45 2064.37 1423.82 2059.6 1426.72L2050.91 1432.11L2056.2 1440.19L2061.49 1448.27L2058.93 1461.14C2057.4 1468.93 2055.98 1474.76 2055.37 1475.95C2054.51 1477.48 2052.2 1479.14 2043.87 1484C2038.04 1487.4 2032.91 1490.06 2032.34 1489.94C2031.77 1489.82 2028.87 1486.72 2025.92 1483C2004.19 1455.92 1979.31 1430.54 1952.06 1407.64C1941.13 1398.47 1918.3 1381.31 1907.52 1374.22C1903.58 1371.56 1900.29 1369.15 1900.2 1368.74C1900.15 1368.4 1923.54 1340.74 1952.24 1307.31C1994.51 1258.11 2004.3 1246.38 2003.87 1245.63C2003.43 1244.88 1999.42 1243.91 1978.3 1239.43C1956.2 1234.73 1953.06 1234.17 1951.77 1234.67C1950.28 1235.24 1950.25 1235.4 1948.61 1243.94C1947.41 1250.14 1947.13 1252.84 1947.54 1253.43C1948.01 1254.02 1950.35 1254.74 1956.2 1255.99C1963.92 1257.63 1964.25 1257.75 1964.2 1258.84C1964.17 1259.83 1933.44 1296.36 1930.78 1298.56C1929.77 1299.39 1928.79 1299.24 1909.36 1295.17C1887.59 1290.6 1883.27 1290.01 1867.33 1289.61C1847.49 1289.09 1831.18 1292.69 1817.98 1300.6C1808.12 1306.51 1801.87 1313.57 1797.75 1323.46C1795.55 1328.79 1793.89 1336.05 1794.65 1337.49C1794.98 1338.16 1798.14 1339.77 1804.69 1342.49C1875.52 1372.28 1936.15 1414.63 1986.56 1469.62C1994.46 1478.25 2007.48 1493.77 2012.82 1500.81L2015.91 1504.94L1916.78 1562.28C1862.24 1593.8 1816.64 1619.84 1815.45 1620.13C1813.38 1620.69 1811.62 1620.31 1770.11 1610.89C1746.32 1605.51 1726.16 1600.67 1725.25 1600.2C1724.08 1599.57 1711.82 1581.84 1682.32 1537.97C1659.56 1504.27 1640.15 1475.52 1639.13 1474.15C1637.57 1472 1637.21 1471.75 1636.39 1472.24C1635.85 1472.57 1627.92 1485.57 1618.8 1501.13C1605.69 1523.46 1602.22 1529.74 1602.4 1530.82C1602.55 1531.52 1618.9 1556.25 1638.77 1585.69C1665.48 1625.37 1675.31 1639.44 1676.49 1640.02C1678.71 1641.05 1802.14 1665.22 1805.96 1665.37C1808.91 1665.45 1813.01 1663.5 1927.23 1607.22C1992.26 1575.22 2045.71 1549.09 2046.11 1549.17C2048.1 1549.6 2068.44 1586.54 2078.67 1608.26C2102.09 1658.11 2120.21 1717 2126.34 1763.3C2127.17 1769.71 2128.12 1775.32 2128.48 1775.84C2128.97 1776.61 2130.4 1776.03 2137.67 1772.27C2142.41 1769.8 2155.14 1763.23 2166 1757.64C2177.14 1751.89 2186.23 1746.81 2186.94 1745.97C2188.04 1744.72 2189.15 1740.04 2196.18 1706.97C2202.73 1676.13 2204.06 1669.29 2203.48 1668.94C2203.06 1668.69 2186.51 1670.58 2166.64 1673.04C2146.82 1675.56 2130.15 1677.44 2129.61 1677.21C2129.12 1677 2127.95 1674.43 2126.96 1671.51C2112 1626.27 2091.82 1582.12 2068.88 1544.52C2065.32 1538.63 2064.93 1537.71 2066.06 1537.95C2066.97 1538.15 2074.39 1534.81 2089.82 1527.27L2112.21 1516.29L2115.13 1520.17C2118.6 1524.77 2119.64 1525.49 2122.01 1524.67C2125.15 1523.57 2136.26 1516.82 2136.87 1515.62C2137.37 1514.68 2137.03 1513.73 2135.13 1510.95C2133.84 1508.91 2133 1507.02 2133.21 1506.57C2133.55 1505.81 2289.51 1428.53 2291.49 1428.18C2293.04 1427.85 2304.46 1441.42 2313.62 1454.47C2336.14 1486.52 2358.59 1531.7 2375.64 1579.43C2383.46 1601.29 2393.66 1634.87 2398.62 1655.36C2399.62 1659.6 2400.83 1663.11 2401.22 1663.25C2401.67 1663.35 2401.92 1663.01 2401.88 1662.4C2401.81 1661.89 2401.86 1642.08 2402.02 1618.43C2402.65 1505.06 2403.16 1450.69 2403.68 1448.26C2403.99 1446.78 2405.26 1442.8 2406.45 1439.41C2418.84 1403.73 2419.26 1359.54 2407.45 1335.5C2406.04 1332.66 2401.54 1325.58 2397.43 1319.79L2390.05 1309.28L2381.63 1303.08C2363.98 1290.05 2344.74 1280.89 2320.22 1273.91C2313.56 1272 2307.77 1270.77 2295.22 1268.66L2278.9 1265.85L2175.89 1219.9C2119.23 1194.62 2072.36 1173.84 2071.73 1173.71C2071.11 1173.58 2070.85 1173.69 2071.12 1174.07ZM1914.12 1317.43C1914.58 1318.08 1884.33 1354 1881.64 1356.08L1880.22 1357.15L1871.47 1352.26C1859.92 1345.72 1841.27 1336.24 1830.49 1331.41C1825.72 1329.29 1821.54 1327.13 1821.17 1326.67C1819.7 1324.65 1828.33 1317.81 1836.2 1314.85C1848.2 1310.33 1859.78 1309.2 1878.74 1310.74C1892.22 1311.84 1912.93 1315.8 1914.12 1317.43ZM2089.86 1461.42C2089.78 1461.79 2087.68 1463.27 2085.19 1464.68L2080.67 1467.25L2080.25 1465.56C2079.67 1463.01 2080.05 1462.04 2082.23 1460.74C2083.92 1459.77 2084.65 1459.65 2087.1 1460.17C2089.03 1460.58 2089.95 1461 2089.86 1461.42ZM2172.37 1712.85L2168.13 1732.81L2157 1738.56C2150.92 1741.74 2145.74 1744.07 2145.56 1743.81C2144.69 1742.57 2135.7 1698.27 2136.31 1697.9C2136.86 1697.57 2175.31 1692.6 2176.23 1692.74C2176.46 1692.79 2174.72 1701.81 2172.37 1712.85Z" fill="#515050"/>
<path d="M1951.62 1162.99C1934.78 1164.87 1930.17 1185.42 1944.58 1194.17C1957.68 1202.09 1974.55 1191.98 1972.06 1177.7C1970.47 1168.7 1961.05 1161.9 1951.62 1162.99Z" fill="#515050"/>
<path d="M1993.47 1191.48C1981.96 1192.01 1974.18 1202.06 1977.14 1212.46C1977.75 1214.63 1978.99 1217.16 1980.12 1218.56C1985.83 1225.46 1996.61 1227.53 2004.19 1223.18C2008.66 1220.54 2010.54 1218.12 2011.9 1213.11C2012.95 1209.3 2012.95 1208.48 2012.2 1205.28C2011.21 1201.26 2008.35 1197.12 2004.93 1194.79C2001.98 1192.79 1996.89 1191.32 1993.47 1191.48Z" fill="#515050"/>
<path d="M1432.32 1104.01C1416.27 1105.79 1410.96 1124.65 1423.83 1134.17C1426.29 1136.02 1427.49 1136.5 1431.3 1137.31C1435.1 1138.11 1436.4 1138.17 1439.39 1137.48C1443.44 1136.57 1447.28 1134.19 1449.72 1131.06C1451.02 1129.41 1451.71 1127.84 1452.38 1124.67C1453.43 1119.76 1452.85 1116.6 1450.23 1112.46C1446.73 1106.85 1439.07 1103.24 1432.32 1104.01Z" fill="#515050"/>
<path d="M1379.6 1119.97C1370.44 1119.79 1362.85 1125.91 1361.7 1134.39C1360.9 1140.4 1363.42 1146.4 1368.43 1150.23C1371.43 1152.58 1378.05 1154.37 1382.3 1153.95C1386.46 1153.62 1391.98 1150.54 1394.51 1147.32C1397.3 1143.66 1398.44 1138.05 1397.29 1133.67C1395.2 1125.88 1387.81 1120.17 1379.6 1119.97Z" fill="#515050"/>
<path d="M2411.63 1743.35C2411.59 1743.51 2412.29 1748.35 2413.19 1754.17C2415.79 1770.96 2419.59 1805.05 2419.71 1812.86C2419.74 1814.69 2419.74 1814.69 2418.11 1813.96C2415.99 1813.07 2412.91 1813.57 2409.35 1815.52C2405.95 1817.28 2399.51 1822.76 2399.23 1824.08C2399.11 1824.61 2400.33 1826.41 2402.19 1828.3C2405.59 1831.83 2406.04 1832.81 2404.69 1833.57C2404.2 1833.91 2346.31 1831.5 2267.17 1827.93C2192.04 1824.51 2130.14 1821.96 2129.73 1822.2C2129.06 1822.56 2128.99 1824.03 2129.57 1829.4C2131.16 1845.96 2131.76 1869.11 2131.02 1886.29C2130.21 1904.06 2127.49 1928.32 2125.35 1936.43L2124.34 1940.35L2101.03 1935.51C2088.23 1932.9 2036.55 1922.2 1986.18 1911.77C1901.06 1894.19 1894.54 1892.75 1893 1891.6C1892.14 1890.91 1880.01 1874.21 1866.02 1854.56L1840.62 1818.8L1856.1 1745.91C1865.25 1702.86 1871.43 1672.65 1871.23 1672.17C1870.91 1671.44 1870.52 1671.36 1869.4 1671.56C1864.25 1672.62 1803.01 1689.31 1802.3 1689.88C1801.59 1690.44 1798.59 1703.72 1788.31 1752.1L1775.25 1813.59L1776.57 1816.3C1777.31 1817.83 1786.8 1830.72 1797.67 1844.96C1808.54 1859.19 1825.42 1881.43 1835.26 1894.34C1848.16 1911.27 1853.65 1918.13 1855.23 1919.07C1856.81 1920.01 1886.34 1928.27 1970.94 1951.38C2118.76 1991.78 2113.09 1990.24 2113.33 1990.51C2113.61 1990.85 2106.84 2012.98 2102.76 2024.92C2083.69 2080.88 2051.71 2145.08 2017.75 2195.66C2014.63 2200.3 2006.96 2211.26 2000.76 2220.04C1994.51 2228.82 1989.53 2236.32 1989.61 2236.77C1989.77 2237.69 2007.35 2248.27 2008.24 2248.02C2008.48 2247.96 2011.83 2243.1 2015.61 2237.33C2020.56 2229.66 2022.96 2226.47 2024.24 2225.75C2025.25 2225.19 2028.41 2224.59 2031.44 2224.3C2060.24 2221.97 2091.97 2217.06 2101.71 2213.44C2110.65 2210.15 2119.57 2203.38 2124.97 2195.86C2131.04 2187.38 2135.7 2174.68 2136.75 2163.58C2137.29 2158.51 2136.98 2158.33 2126.37 2157.96C2121.66 2157.78 2117.31 2157.85 2116.72 2158.12C2115.86 2158.54 2115.41 2159.82 2114.3 2165.05C2110.79 2181.59 2103.73 2190.8 2091.34 2194.9C2086.62 2196.44 2080.28 2197.52 2061.76 2200.04C2043.44 2202.44 2041.8 2202.59 2040.91 2202.07C2040.38 2201.74 2042.51 2197.89 2049.37 2186.81C2086.46 2127.07 2113.74 2067.39 2131.48 2007.06C2133.16 2001.4 2134.84 1996.57 2135.18 1996.37C2135.58 1996.12 2184.44 2009.48 2259.9 2030.37C2328.17 2049.34 2384.8 2064.96 2385.76 2065.17C2389.11 2065.88 2389.25 2066.35 2388.18 2077.55C2386.23 2097.62 2380.62 2123.47 2373.08 2146.66C2359.71 2188.09 2334.71 2240.14 2305.51 2287.32C2300.62 2295.28 2296.5 2302.08 2296.43 2302.39C2296.37 2302.71 2296.56 2302.92 2296.87 2302.87C2297.23 2302.84 2332.75 2269.48 2375.95 2228.7C2419.11 2187.9 2455.21 2154 2456.25 2153.34C2457.21 2152.72 2461.48 2150.48 2465.64 2148.49C2482.46 2140.3 2499.3 2128.92 2512.25 2116.88C2522.74 2107.18 2533.88 2093.54 2539.82 2083.21C2542.19 2079.02 2542.42 2078.24 2545.27 2065.37C2549.41 2046.44 2549.29 2040.84 2544.43 2023.52C2537.34 1998.22 2524.08 1974.26 2504.53 1951.17C2499.17 1944.84 2498.87 1944.28 2494.27 1933.81C2468.9 1875.26 2431.89 1789.06 2421.11 1763.53C2414.84 1748.62 2411.86 1742.25 2411.63 1743.35ZM2422.74 1858.39C2422.76 1862.81 2422.29 1879.27 2421.77 1890.92C2420.12 1932.19 2415.32 1962.64 2405.85 1990.71C2404.68 1994.27 2403.6 1996.58 2402.89 1997.1C2401.84 1997.86 2397.23 1996.94 2274.49 1971.75C2185.76 1953.56 2147.06 1945.45 2146.69 1944.93C2146.47 1944.61 2146.97 1939.75 2147.9 1933.93C2152.09 1908.1 2153.76 1882.9 2153.03 1858.4C2152.56 1844.66 2152.58 1844 2153 1843.71C2153.41 1843.46 2419.66 1855.03 2421.78 1855.37C2422.48 1855.46 2422.72 1856.28 2422.74 1858.39Z" fill="#515050"/>
<path d="M1521.66 1598.25C1497.89 1613.46 1477.72 1626.28 1476.8 1626.7C1475.21 1627.46 1474.13 1627.23 1412.57 1614.43L1349.93 1601.4L1338.68 1652.95C1327.66 1703.44 1327.43 1704.49 1326.02 1705.57C1325.23 1706.18 1300.47 1720.51 1271 1737.39C1234.16 1758.54 1217.4 1768.4 1217.38 1769.06C1217.38 1769.61 1234.61 1793.58 1255.68 1822.35C1276.75 1851.17 1294.11 1875.34 1294.24 1876.14C1294.4 1877.05 1289.96 1899.08 1282.8 1932.78L1271.08 1987.92L1324.53 1999.27C1362.92 2007.43 1378.56 2010.92 1380.06 2011.68C1381.45 2012.41 1384.81 2016.16 1390.68 2023.43C1422.85 2063.39 1449.51 2096.04 1450.91 2097.28C1453.25 2099.38 1455.56 2099.7 1458.95 2098.55C1460.49 2097.99 1482.9 2086.68 1508.73 2073.51C1542.16 2056.38 1556.28 2049.44 1557.78 2049.37C1559.09 2049.32 1580.15 2053.57 1613.43 2060.64L1666.93 2072.01L1678.69 2016.65C1689.68 1964.94 1690.52 1961.26 1691.81 1959.93C1692.51 1959.14 1718.06 1944.2 1748.54 1926.77C1779.01 1909.34 1804.26 1894.66 1804.67 1894.14C1805.61 1893.07 1809.21 1898.2 1765.96 1839.16C1747.23 1813.6 1731.57 1791.78 1731.13 1790.75C1730.36 1788.81 1730.59 1787.71 1741.06 1737.6L1751.79 1686.49L1689.66 1673.29L1627.59 1660.11L1626.03 1658.51C1625.2 1657.67 1611.85 1637.78 1596.42 1614.29C1572.06 1577.26 1568.05 1571.55 1566.55 1571.07C1564.92 1570.62 1562.34 1572.16 1521.66 1598.25ZM1571.22 1589.34C1579.65 1601.9 1597.5 1629.04 1609.35 1647.35C1615.9 1657.57 1620.41 1663.99 1621.51 1664.67C1622.91 1665.63 1633.79 1668.05 1682.52 1678.4L1741.87 1691.01L1742.48 1692.35C1743.05 1693.58 1741.97 1699.2 1732.8 1742.36C1723.18 1787.68 1722.52 1791.07 1723.21 1792.54C1723.57 1793.39 1739.44 1815.36 1758.39 1841.25C1777.39 1867.2 1793.27 1889.13 1793.68 1889.99C1794.54 1891.55 1794.54 1891.55 1793.12 1892.63C1792.41 1893.19 1767.85 1907.35 1738.6 1924.1C1701.91 1945.07 1685.2 1954.99 1684.5 1956.06C1683.8 1957.12 1680.16 1973.41 1672.35 2010.17C1663.8 2050.42 1660.96 2062.96 1660.35 2063.32C1659.74 2063.69 1647.27 2061.21 1607.79 2052.82C1563.89 2043.5 1555.86 2041.9 1554.35 2042.3C1552.61 2042.7 1547.81 2045.16 1489.82 2074.79C1467.56 2086.24 1456.84 2091.42 1455.94 2091.22C1455.08 2091.04 1444.06 2077.83 1420.7 2048.91C1402.05 2025.79 1386.2 2006.52 1385.52 2006.1C1384.78 2005.67 1362.28 2000.67 1332.63 1994.37C1286.46 1984.56 1280.97 1983.29 1280.33 1982.38C1279.7 1981.47 1280.77 1975.85 1290.91 1928.1C1297.14 1898.78 1302.13 1874.45 1302.06 1873.94C1301.91 1873.24 1261.72 1817.95 1230.15 1774.91C1228.89 1773.27 1228 1771.59 1228.11 1771.11C1228.21 1770.64 1251 1757.21 1278.84 1741.26C1306.63 1725.3 1330.44 1711.59 1331.74 1710.76L1334.14 1709.23L1344.97 1659.64C1354.41 1616.32 1355.93 1610.02 1356.76 1609.75C1357.34 1609.55 1380.61 1614.27 1416.84 1621.97C1458.13 1630.74 1476.51 1634.47 1477.85 1634.32C1479.18 1634.21 1486.48 1629.75 1501.28 1620.14C1513.14 1612.39 1530.86 1601.03 1540.67 1594.83C1550.47 1588.63 1559.61 1582.79 1560.92 1581.91C1562.45 1580.85 1563.75 1580.36 1564.46 1580.62C1565.07 1580.8 1568.1 1584.71 1571.22 1589.34Z" fill="#515050"/>
<path d="M1551.19 1624.94C1549.35 1626.04 1534.05 1635.77 1517.21 1646.6C1500.31 1657.42 1485.71 1666.63 1484.79 1667.04C1483.09 1667.78 1481.95 1667.54 1433.85 1657.6L1384.67 1647.42L1375.8 1687.77C1369.01 1718.62 1366.7 1728.35 1366 1729.14C1365.47 1729.69 1345.88 1741.15 1322.44 1754.55C1297.76 1768.74 1279.76 1779.44 1279.65 1779.96C1279.53 1780.49 1291.96 1797.98 1309.27 1821.59C1325.64 1844 1339.3 1862.96 1339.58 1863.85C1340.07 1865.17 1338.87 1871.38 1331.09 1908.86C1322.6 1949.4 1322.09 1952.33 1322.93 1952.84C1323.4 1953.16 1342.65 1957.53 1365.63 1962.52C1402.81 1970.52 1407.6 1971.71 1409.04 1972.79C1409.9 1973.47 1415.65 1980.21 1421.76 1987.8C1439.18 2009.44 1461.44 2036.8 1462.98 2038.51C1463.95 2039.54 1465.12 2040.18 1466.82 2040.54C1469.15 2041.04 1469.8 2040.79 1476.43 2037.5C1484.66 2033.4 1520.07 2015.36 1534.87 2007.74C1540.39 2004.94 1545.8 2002.39 1546.92 2002.13C1548.79 2001.7 1552.85 2002.45 1590.99 2010.39C1624.12 2017.32 1633.2 2019.02 1634.05 2018.65C1634.91 2018.23 1636.07 2013.34 1644.12 1975.41C1652.02 1938.23 1653.37 1932.44 1654.41 1931.17C1655.12 1930.33 1675.41 1918.36 1699.54 1904.55C1723.73 1890.69 1743.55 1879.01 1743.65 1878.53C1743.75 1878.05 1730.9 1860.03 1715.12 1838.46C1699.33 1816.95 1686.1 1798.46 1685.72 1797.49C1685.02 1795.75 1685.38 1793.78 1693.27 1755.21L1701.57 1714.74L1652.39 1704.02C1604.34 1693.54 1603.21 1693.3 1602.01 1691.94C1601.28 1691.18 1591.48 1676.4 1580.07 1659.12C1557.29 1624.42 1556.66 1623.51 1555.35 1623.23C1554.9 1623.14 1553.01 1623.9 1551.19 1624.94ZM1556.77 1636.95C1578.77 1671.16 1596.93 1698.26 1598.41 1699.12C1599.62 1699.82 1613.79 1703 1646.56 1709.96L1693.01 1719.83L1685.03 1758.26C1677.71 1793.53 1677.05 1796.92 1677.64 1798.65C1678.01 1799.67 1690.58 1817.35 1705.67 1837.95C1720.76 1858.6 1732.95 1875.81 1732.84 1876.29C1732.73 1876.82 1713.86 1887.99 1690.68 1901.28C1663.72 1916.7 1648.29 1925.9 1647.53 1926.95C1646.56 1928.18 1644.78 1935.97 1637.63 1969.67C1629.76 2006.7 1628.77 2010.8 1627.91 2010.94C1627.36 2010.99 1609.04 2007.27 1587.12 2002.61C1550.21 1994.77 1547.07 1994.16 1545.19 1994.64C1543.35 1995.19 1525.08 2004.34 1485.24 2024.8C1475.31 2029.92 1469.13 2032.75 1468.33 2032.58C1467.54 2032.41 1460.6 2024.26 1447.92 2008.54C1417.8 1971.22 1414.96 1967.81 1413.24 1966.39C1411.67 1965.12 1408.62 1964.42 1371.28 1956.32C1340.52 1949.68 1330.97 1947.43 1330.73 1946.88C1330.58 1946.46 1334.34 1927.66 1339.14 1905.05C1346.46 1870.61 1347.8 1863.72 1347.38 1862.36C1347.1 1861.42 1334.01 1843.13 1318.34 1821.64C1302.61 1800.13 1289.82 1782.35 1289.87 1782.13C1289.99 1781.55 1298.86 1776.43 1338.99 1753.48C1356.08 1743.7 1370.79 1735.12 1371.73 1734.33L1373.33 1732.9L1381.39 1694.98C1385.81 1674.17 1389.69 1656.77 1389.96 1656.33C1390.45 1655.67 1395.08 1656.54 1436.93 1665.43C1469.25 1672.29 1483.94 1675.25 1485.27 1675.09C1486.56 1674.92 1493.21 1670.98 1506.22 1662.54C1544.47 1637.87 1552.76 1632.62 1553.44 1632.77C1553.84 1632.85 1555.34 1634.72 1556.77 1636.95Z" fill="#515050"/>
<path d="M1388.45 1716.79C1388.19 1716.9 1380.02 1754.53 1370.28 1800.37C1352.89 1882.25 1352.57 1883.73 1353.53 1884.54C1355.11 1885.75 1630.64 1944.17 1632.08 1943.54C1633.11 1943.15 1634.33 1937.67 1650.79 1859.63L1668.35 1776.14L1528.62 1746.29C1451.79 1729.91 1388.67 1716.62 1388.45 1716.79ZM1513.94 1754.16C1517.01 1755.09 1520.07 1756.07 1520.77 1756.38L1521.97 1756.91L1507.72 1823.99L1493.47 1891.08L1492.17 1891.02C1491.4 1891.02 1485.64 1890.19 1479.33 1889.18C1455.73 1885.43 1423.61 1881.54 1400.93 1879.64C1392.93 1878.99 1388.78 1878.44 1388.4 1877.98C1387.91 1877.49 1390.67 1863.66 1401.61 1812.16L1415.45 1746.98L1416.92 1746.52C1421.08 1745.09 1444.38 1743.8 1457.27 1744.33C1464.15 1744.63 1477.29 1745.93 1484.01 1746.97C1489.75 1747.91 1507.38 1752.1 1513.94 1754.16ZM1579.55 1768.04C1587.99 1770.77 1597.41 1774.48 1605.73 1778.35C1613.68 1782.02 1626.73 1789.05 1629.33 1791.04L1630.8 1792.23L1616.84 1857.94C1608.97 1895.02 1602.64 1923.71 1602.32 1923.81C1602 1923.9 1597.43 1922.49 1592.19 1920.61C1571.26 1913.23 1547.6 1905.89 1519.02 1897.94L1501.08 1892.97L1515.11 1826.06C1526.29 1772.9 1529.41 1759.04 1530.01 1758.73C1530.73 1758.39 1537.72 1759.04 1547.05 1760.36C1551.96 1761.02 1574 1766.25 1579.55 1768.04Z" fill="#515050"/>
<path d="M1800.05 1947.76C1782.33 1958.51 1757.05 1973.84 1743.91 1981.82C1727.02 1992.03 1719.66 1996.76 1719.14 1997.81C1718.73 1998.6 1713.94 2026.46 1708.54 2059.7C1699.58 2114.77 1698.76 2120.28 1699.37 2122.18C1699.78 2123.31 1761.87 2225 1837.39 2348.14C1912.92 2471.22 1975.3 2572.96 1975.92 2574.2C1976.76 2575.87 1976.91 2576.84 1976.49 2577.69C1974.95 2580.73 1952.82 2596.34 1937.32 2605.31C1914.1 2618.81 1882.47 2633.02 1848.15 2645.38C1814.86 2657.35 1787.89 2665.26 1743.71 2675.97C1737.2 2677.56 1732.08 2679.02 1732.4 2679.2C1732.72 2679.37 1784.01 2679.89 1846.41 2680.39L1959.83 2681.25L1965.17 2682.66C1978.58 2686.33 2000.52 2691.16 2007.57 2692.05C2029.03 2694.73 2048.9 2694.21 2066.67 2690.47C2076.86 2688.33 2082.41 2685.98 2093.7 2679.21C2105.14 2672.31 2108.89 2669.46 2113.89 2663.52C2124.72 2650.8 2132.88 2635.59 2139.82 2615.2C2142.62 2607.07 2147.35 2584.23 2148.13 2574.96C2148.7 2568.67 2149.06 2566.98 2150.6 2563.06C2151.55 2560.56 2171.35 2516.24 2194.55 2464.58C2217.82 2412.88 2236.73 2370.53 2236.64 2370.4C2236.28 2369.83 2233.86 2372.29 2229.31 2378.06C2185.98 2432.56 2130.41 2485.13 2084.68 2514.88C2068.62 2525.38 2042.4 2539.3 2039.78 2538.75C2038.71 2538.52 2033.49 2531.5 2017.78 2509.34C2006.45 2493.35 1941.09 2401.47 1872.52 2305.14C1804.01 2208.83 1747.77 2129.31 1747.66 2128.46C1747.45 2127.48 1749.82 2114.07 1753.72 2094.03C1763.42 2043.65 1763.39 2043.75 1764.63 2042.69C1765.21 2042.21 1794.95 2024.01 1830.74 2002.25C1866.51 1980.53 1895.95 1962.39 1896.15 1961.99C1896.35 1961.59 1895.97 1960.9 1895.3 1960.43C1894.61 1960.01 1880.6 1952.78 1864.09 1944.41C1847.59 1936.05 1833.66 1928.95 1833.19 1928.68C1832.54 1928.38 1823.41 1933.62 1800.05 1947.76Z" fill="#515050"/>
<path d="M1981.42 2131.14C1977.51 2130.86 1974.58 2131.51 1971.15 2133.38C1960.15 2139.37 1959.25 2153.37 1969.36 2161.1C1972.48 2163.47 1973.34 2163.87 1977.22 2164.64C1982.1 2165.68 1985.46 2165.23 1989.9 2163.03C1995.82 2160.04 1999.58 2152.94 1998.66 2146.4C1997.6 2138.28 1990.21 2131.68 1981.42 2131.14Z" fill="#515050"/>
<path d="M959.259 1919.03C945.233 1916.88 927.822 1918.09 908.34 1922.62C903.541 1923.7 886.375 1927.95 870.14 1932.01C853.961 1936.08 834.288 1940.95 826.448 1942.93C817.122 1945.2 812.119 1946.68 811.996 1947.26C811.827 1948.05 847.267 1978.49 848.8 1978.81C849.993 1979.07 851.284 1978.02 857.218 1971.88C860.434 1968.48 862.675 1965.75 862.707 1965.04C862.75 1964.28 861.839 1962.98 860.019 1961.49C856.924 1958.73 856.285 1957.55 857.486 1956.65C857.974 1956.31 861.003 1955.46 864.293 1954.78C867.584 1954.1 880.972 1950.87 894.133 1947.59C907.225 1944.36 920.341 1941.29 923.178 1940.79C963.962 1933.78 986.036 1944.43 990.638 1973.34C991.457 1978.7 991.854 1987.73 991.543 1995.06C991.338 1999.38 990.534 2004.56 988.706 2013.45C987.113 2021.22 986.342 2025.97 986.671 2026.1C986.989 2026.28 991.296 2027.8 996.341 2029.48C1004.5 2032.15 1005.57 2032.43 1006.52 2031.86C1007.39 2031.38 1007.98 2029.19 1010.31 2018.2C1013.16 2004.51 1013.84 1998.8 1013.83 1987.65C1013.79 1959.65 1002.87 1937.57 983.926 1926.98C976.229 1922.69 969.844 1920.62 959.259 1919.03Z" fill="#515050"/>
<path d="M1214.16 2011.38C1213.16 2011.61 1103.7 2063.38 970.983 2126.49C838.27 2189.61 729.017 2241.48 728.178 2241.8C726.125 2242.52 725.374 2241.86 718.564 2233.41C705.809 2217.45 692.155 2196.22 682.242 2176.95C657.794 2129.41 640.911 2083.43 625.375 2022.16C623.128 2013.18 621.213 2005.71 621.122 2005.58C620.666 2004.66 620.136 2006.31 620.098 2009.01C620.079 2010.77 619.563 2035.83 619.011 2064.7C615.659 2231.64 616.162 2219.49 611.933 2230.74C608.99 2238.73 603.957 2259.9 602.823 2269.44C600.332 2290.38 601.964 2311.76 607.272 2327.85C608.896 2332.77 610.219 2335.21 617.216 2345.86C625.797 2358.83 626.753 2359.92 636.524 2367.29C659.511 2384.54 689.693 2396.7 723.095 2402.08L736.008 2404.16L760.604 2415.51C774.117 2421.75 814.284 2440.28 849.813 2456.6C940.432 2498.32 941.943 2499.03 943.902 2501.26C944.425 2501.87 944.585 2501.96 944.334 2501.47C944.026 2500.96 943.831 2500.2 943.932 2499.72C944.055 2499.14 941.666 2496.98 936.877 2493.26C887.807 2455.45 839.682 2409.29 808.557 2370C795.175 2353.08 779.485 2329.98 773.119 2317.76C768.944 2309.75 766.467 2304.09 766.68 2303.08C766.893 2302.08 1201.01 2058.49 1205.12 2057.04L1208 2056.06L1251.59 2066.53C1289.71 2075.73 1295.33 2077.2 1296.53 2078.23C1297.27 2078.94 1316.77 2108.14 1339.91 2143.14C1363.03 2178.2 1382.26 2206.96 1382.72 2207.06C1383.17 2207.15 1383.83 2206.85 1384.22 2206.38C1384.61 2205.97 1392.38 2192.88 1401.49 2177.37C1413.98 2156.01 1417.93 2148.85 1417.77 2147.93C1417.58 2146.89 1358.27 2056.4 1348.79 2042.63L1345.97 2038.61L1281 2024.8C1227.54 2013.5 1215.71 2011.1 1214.16 2011.38Z" fill="#515050"/>
<path d="M1540.04 2091.54C1538.93 2092.02 1524.24 2101.37 1507.42 2112.37C1490.6 2123.37 1467.45 2138.44 1456.02 2145.89C1443.29 2154.12 1434.58 2160.17 1433.62 2161.34C1432 2163.37 1425.93 2183.56 1407.85 2246.35C1403.92 2260.09 1400.57 2271.41 1400.36 2271.53C1400.16 2271.65 1396.25 2271.04 1391.67 2270.24C1382.52 2268.62 1381.74 2268.68 1377.55 2271.05L1374.99 2272.49L1373.82 2270.47C1372.22 2267.65 1369.53 2266.08 1364.64 2265.05C1362.37 2264.56 1358.81 2263.42 1356.7 2262.48C1354.64 2261.54 1351.51 2260.38 1349.84 2259.86C1347.05 2258.99 1346.51 2259.04 1344.59 2259.96C1342.4 2261.04 1340.94 2263.43 1341.21 2265.53C1341.25 2266.2 1342.52 2268.02 1343.98 2269.54C1345.44 2271.07 1346.54 2272.57 1346.46 2272.94C1346.38 2273.31 1340.41 2280.49 1333.22 2288.9C1323.18 2300.68 1319.9 2304.12 1319.24 2303.87C1318.48 2303.54 1318.22 2299.46 1317.74 2283.51C1317.39 2270.63 1317.4 2263.35 1317.83 2263C1318.19 2262.69 1320.01 2262.52 1321.84 2262.58C1325.92 2262.62 1327.03 2262.14 1328.58 2259.32C1331.28 2254.43 1328.02 2251.36 1316.58 2248.21C1312.49 2247.07 1307.18 2245.22 1304.81 2244.11C1299.42 2241.53 1297.6 2241.14 1294.99 2241.97C1292.7 2242.7 1291.43 2244.2 1290.88 2246.78C1290.36 2249.27 1291.32 2250.85 1294.99 2253.45C1296.84 2254.78 1298.4 2256.38 1298.65 2257.16C1298.85 2257.91 1299.13 2260.79 1299.19 2263.56C1299.32 2266.3 1299.79 2282.79 1300.38 2300.14C1300.9 2317.53 1301.52 2332.24 1301.69 2332.82C1302.71 2335.86 1307.15 2337.3 1309.9 2335.51C1310.66 2335.01 1322.02 2322.07 1335.06 2306.79C1348.16 2291.52 1359.49 2278.69 1360.28 2278.31C1361.01 2277.96 1362.57 2277.86 1363.71 2278.1C1366.83 2278.76 1369.86 2278.47 1372.56 2277.22L1374.93 2276.12L1377.85 2278.29C1379.44 2279.51 1381.68 2280.98 1382.74 2281.53C1383.8 2282.14 1384.73 2283.06 1384.8 2283.57C1384.87 2284.08 1382.85 2294.75 1380.41 2307.32C1377.94 2319.82 1375.53 2332.55 1375.07 2335.55C1374.31 2340.52 1374.14 2341.04 1372.85 2341.81C1372.1 2342.26 1370.72 2342.63 1369.83 2342.61C1367.05 2342.57 1365.13 2343.21 1363.93 2344.67C1362.97 2345.84 1362.86 2346.37 1363.16 2348.31C1363.6 2351.27 1365.83 2353.07 1370.2 2354C1375.25 2355.08 1375.81 2355.52 1375.28 2358.01C1375.04 2359.17 1362.5 2402.55 1347.38 2454.43C1332.26 2506.31 1319.76 2549.53 1319.57 2550.43C1319.37 2551.38 1319.04 2551.81 1318.82 2551.43C1318.04 2550.1 1304.11 2494.09 1300.12 2475.74C1297.89 2465.83 1297.34 2465.33 1287.08 2463.65C1282.09 2462.81 1279.04 2462.1 1277.42 2461.32C1269.64 2457.46 1261.79 2459.16 1260.56 2464.97C1259.84 2468.35 1261.92 2470.89 1268.52 2474.72C1273.11 2477.41 1274.18 2478.24 1274.7 2479.73C1275.34 2481.47 1274.79 2483.78 1261.83 2532.75C1253.14 2565.85 1248.02 2584.36 1247.46 2585.02C1246.3 2586.31 1245.56 2586.43 1240.17 2586.12C1237.76 2585.99 1234.72 2586.06 1233.49 2586.24C1228.82 2587.02 1226.13 2592.13 1228.33 2596.02C1230.37 2599.55 1233.02 2601.05 1238.99 2602.26C1241.9 2602.82 1245.99 2603.42 1248.04 2603.52C1251.27 2603.71 1252.67 2604.12 1257.39 2606.17C1264.42 2609.15 1271.27 2610.72 1274.15 2610.01C1278.43 2608.87 1280.81 2604.35 1279.29 2600.33C1278.36 2597.98 1277.59 2597.43 1271.68 2594.8C1267.08 2592.72 1266.01 2591.88 1265.39 2590.04C1265.19 2589.33 1267.65 2579.15 1272.65 2560.06C1282.92 2521.22 1283.31 2519.93 1284.16 2520.11C1284.51 2520.18 1288.68 2536.03 1293.37 2555.3C1302.01 2590.64 1302.76 2593.23 1306.06 2595.86C1307.03 2596.62 1306.96 2596.94 1297.75 2627.16C1287.22 2661.64 1288.41 2659.13 1282.82 2658.61C1272.46 2657.62 1266.26 2656.63 1250.19 2653.5C1231.27 2649.81 1221.13 2647.21 1203.19 2641.41C1151.31 2624.71 1096.97 2600.25 1046.76 2570.87C1039.84 2566.86 1033.89 2563.55 1033.46 2563.62C1033.04 2563.65 1035.32 2566.06 1038.42 2569.04C1041.54 2571.97 1078.18 2606.52 1119.76 2645.77C1202.04 2723.42 1196.71 2718.04 1204.62 2731.92C1209.36 2740.1 1218.88 2753.39 1225.34 2760.72C1237.57 2774.64 1257.89 2791.6 1271.32 2799.09L1277.21 2802.38L1292.83 2805.7C1304.52 2808.18 1309.62 2809.04 1313.28 2809.16C1329.6 2809.75 1358.46 2802.14 1380.25 2791.48C1387.99 2787.71 1403.13 2778.51 1409.9 2773.43C1413.71 2770.6 1417.82 2767.72 1419.05 2766.98C1420.32 2766.31 1436.66 2760.35 1455.33 2753.77C1474.06 2747.2 1520.83 2730.75 1559.25 2717.22C1623.4 2694.68 1632.46 2691.42 1632.06 2690.78C1631.96 2690.71 1626.03 2691.21 1618.87 2691.96C1568.76 2697.32 1510.46 2698.52 1466.41 2695.18C1427.34 2692.18 1397.21 2686.49 1366.13 2676.3C1360.36 2674.42 1360.44 2676.58 1365.18 2654.24L1369.33 2634.7L1370.86 2635.35C1371.66 2635.74 1374.96 2636.72 1378.22 2637.58C1383.56 2638.99 1384.32 2639.04 1386.24 2638.4C1388.78 2637.61 1390.58 2635.29 1391.25 2632.12C1392.04 2628.42 1390.91 2627.02 1384.62 2623.65C1380.95 2621.65 1378.88 2620.22 1378.12 2619.06L1376.99 2617.39L1379.41 2607.96C1390.23 2565.11 1403.94 2514.8 1405.23 2513.2C1406.54 2511.54 1408.74 2510.96 1414.46 2510.85C1419.58 2510.78 1422.14 2510.17 1423.39 2508.78C1425.48 2506.46 1424.8 2500.46 1422.15 2498.41C1421.23 2497.72 1417.77 2496.65 1411.46 2495.09C1406.32 2493.83 1401.62 2492.5 1400.97 2492.2L1399.74 2491.55L1430.81 2345.29L1461.88 2199.03L1464.51 2197.27C1469.46 2193.8 1537.15 2152.92 1538.47 2152.54C1539.5 2152.2 1557.75 2155.97 1618.07 2168.73C1685.83 2183.12 1696.36 2185.25 1696.78 2184.67C1697.2 2184.1 1679.29 2128.96 1676.23 2121.29L1675.34 2119.06L1608.66 2104.9L1542.04 2090.75L1540.04 2091.54Z" fill="#515050"/>
<path d="M910.166 1980.81C905.819 1981.43 901.387 1983.86 898.681 1987.09C896.78 1989.34 896.317 1990.4 895.611 1994C894.545 1999.02 895.269 2002.6 898.186 2006.75C901.148 2010.97 904.286 2012.96 909.681 2014.1C915.02 2015.24 918.924 2014.74 922.994 2012.35C928.741 2009.04 932.266 2002.23 931.41 1995.92C930.89 1992.22 927.756 1987.14 924.332 1984.54C920.76 1981.79 914.58 1980.15 910.166 1980.81Z" fill="#515050"/>
<path d="M1734.78 2234.59C1731.82 2235.12 1691.83 2252.13 1690.17 2253.49C1688 2255.35 1687.33 2257.08 1687.97 2259.1C1689.12 2262.93 1691.17 2263.86 1697.37 2263.47C1699.48 2263.31 1701.54 2263.41 1701.91 2263.6C1702.44 2263.93 1725.41 2311.71 1727.86 2317.47C1728.53 2319.11 1728.51 2319.16 1726.4 2320.75C1722.12 2324.09 1721.3 2326.02 1723.01 2328.86C1723.93 2330.38 1724.51 2330.73 1726.85 2331.17C1728.33 2331.48 1730.52 2331.51 1731.65 2331.2C1733.84 2330.67 1757.58 2320.92 1773.14 2314.17C1784.45 2309.29 1784.9 2308.83 1783.38 2303.43C1782.7 2301.02 1781.34 2298.47 1779.36 2295.79C1776.57 2292.16 1776.07 2291.72 1773.85 2291.25C1769.31 2290.29 1765.97 2293.16 1766.3 2297.76C1766.4 2298.94 1766.37 2300.76 1766.32 2301.85L1766.2 2303.81L1755.97 2307.82C1750.34 2309.99 1745.37 2311.64 1744.92 2311.49C1743.94 2311.06 1729.33 2280.69 1729.78 2279.96C1730.13 2279.42 1734.46 2277.47 1739.95 2275.38C1743.43 2274.08 1743.43 2274.08 1745.89 2275.37C1747.29 2276.06 1749.69 2277.01 1751.31 2277.52C1754.1 2278.33 1754.3 2278.26 1755.79 2276.81C1758.41 2274.28 1758.31 2271.66 1755.25 2266.21C1753.83 2263.7 1752.2 2260.48 1751.55 2259.08C1750.95 2257.68 1749.54 2255.67 1748.32 2254.69C1746.22 2252.86 1746.23 2252.81 1746.67 2249.32C1747.2 2244.9 1745.9 2241.21 1742.58 2237.85C1739.95 2235.14 1737.45 2234.05 1734.78 2234.59ZM1738.05 2251.35C1741.01 2253.63 1741.19 2257.81 1738.44 2260.98C1735.93 2263.87 1726.68 2268.53 1724.47 2268.06C1723.11 2267.77 1721.82 2266.01 1719.09 2260.68C1716.46 2255.49 1716.57 2255.23 1723.01 2252.3C1730.12 2249 1734.64 2248.69 1738.05 2251.35Z" fill="#515050"/>
<path d="M1120.93 2118.32C1118.42 2120.11 1117.99 2122.39 1119.52 2125.81C1120.16 2127.27 1120.63 2128.97 1120.49 2129.6C1120.37 2130.18 1117.28 2133.28 1113.59 2136.42C1102.18 2146.25 1080.15 2166.69 1078.67 2168.91C1071.02 2180.04 1077.17 2196.91 1092.83 2208.13C1098.6 2212.28 1102.11 2213.91 1107.96 2215.16C1114.89 2216.63 1118.68 2216.11 1124.33 2212.95C1129.6 2209.98 1134.21 2206.16 1153.69 2188.49L1167.29 2176.14L1172.39 2177.56C1177.49 2178.97 1177.55 2178.99 1179.05 2177.81C1180.68 2176.56 1181.83 2172.83 1181.22 2170.93C1180.99 2170.33 1179.09 2168.38 1176.87 2166.53C1174.72 2164.64 1171.58 2161.54 1169.85 2159.63C1166.14 2155.31 1163.92 2153.73 1161.39 2153.64C1159.21 2153.56 1157.64 2154.5 1156.32 2156.53C1155.16 2158.38 1155.43 2160.43 1157.24 2163.41C1157.99 2164.62 1158.46 2166.04 1158.33 2166.62C1158.15 2167.47 1138.12 2185.79 1123.2 2198.74C1117.98 2203.21 1113.44 2204.17 1107.07 2201.99C1100.82 2199.84 1093.23 2192.54 1091.56 2187C1090.69 2184.11 1091.52 2180.2 1093.47 2177.74C1094.28 2176.7 1103.38 2168.25 1113.65 2159.01L1132.37 2142.17L1137.18 2143.53C1141.67 2144.75 1142.08 2144.79 1143.45 2143.92C1145.92 2142.35 1146.89 2140.29 1146.39 2137.92C1146.08 2136.31 1144.85 2134.83 1140.83 2131.11C1138.01 2128.46 1134.14 2124.61 1132.21 2122.49C1129.18 2119.19 1128.3 2118.56 1125.73 2117.8C1122.99 2116.99 1122.69 2117.04 1120.93 2118.32Z" fill="#515050"/>
<path d="M1671.48 2258.79C1668.7 2259.58 1659.04 2262.28 1650.03 2264.73C1641.01 2267.23 1632.75 2269.83 1631.65 2270.54C1629.86 2271.7 1629.66 2272.05 1629.19 2275.37C1628.57 2279.43 1629.9 2285.73 1632 2288.44C1633.43 2290.35 1636.17 2291.15 1638.93 2290.47C1641.06 2289.93 1641.31 2289.59 1643 2283.88C1644.54 2278.85 1645.59 2277.81 1648.32 2278.38C1649.34 2278.6 1650.44 2279.28 1650.8 2279.85C1651.2 2280.49 1653.92 2288.08 1656.88 2296.76C1659.9 2305.47 1663.98 2317.26 1665.97 2322.99C1668.02 2328.72 1669.68 2334.04 1669.68 2334.87C1669.66 2335.8 1668.96 2337.15 1667.62 2338.68C1665.11 2341.57 1664.61 2343.62 1665.81 2345.81C1667.76 2349.48 1671.15 2350.03 1677.36 2347.87C1679.55 2347.07 1684.16 2345.78 1687.6 2344.97C1695.91 2342.98 1698.39 2340.8 1697.28 2336.54C1696.8 2334.61 1694.72 2332.96 1692.16 2332.41C1688.3 2331.59 1686.97 2330.32 1685.44 2326.07C1679.13 2308.56 1667.98 2275.55 1667.97 2274.44C1668 2272.91 1670.55 2270.96 1672.2 2271.31C1672.77 2271.43 1675.06 2272.91 1677.26 2274.6C1679.45 2276.28 1681.81 2277.77 1682.55 2277.93C1684.48 2278.34 1688.35 2275.74 1688.77 2273.78C1689.41 2270.77 1686.44 2263.79 1683.14 2260.33C1680.21 2257.34 1677.74 2256.98 1671.48 2258.79Z" fill="#515050"/>
<path d="M1185.67 2176.24C1183.96 2176.48 1182.81 2177.4 1181.76 2179.27C1180.61 2181.35 1181.12 2183.72 1183.38 2186.74C1184.43 2188.23 1184.93 2189.5 1184.75 2190.34C1184.46 2191.72 1151.14 2236.53 1149.92 2237.26C1149.51 2237.51 1147.31 2237.26 1144.91 2236.81C1140.87 2236 1140.39 2236.01 1138.85 2237.12C1137.03 2238.39 1135.94 2241.58 1136.62 2243.71C1137.05 2245.02 1139.64 2247.06 1143.74 2249.31C1145.33 2250.2 1149.17 2252.78 1152.24 2255.09C1158.38 2259.71 1160.23 2260.27 1163.04 2258.49C1166.48 2256.24 1166.49 2252.27 1163.07 2248.84C1161.91 2247.6 1160.84 2246.21 1160.71 2245.69C1160.64 2245.17 1165.61 2238 1172.82 2228.38C1182.1 2215.95 1185.31 2212.05 1186.05 2212.2C1186.9 2212.38 1187.2 2216.26 1188.18 2235.68C1190.21 2277.57 1190.45 2281.15 1191.82 2283.1C1192.73 2284.4 1193.61 2285.02 1195.14 2285.35C1198.21 2286 1199.98 2284.66 1202.18 2279.89C1205.42 2273.01 1208.03 2269.1 1224.11 2247.61L1239.84 2226.67L1243.32 2227.57C1247.38 2228.6 1249.8 2228.4 1251.49 2226.88C1252.82 2225.62 1253.68 2222.15 1252.97 2220.73C1252.67 2220.17 1249.96 2218.11 1246.94 2216.14C1243.92 2214.17 1239.64 2211.11 1237.4 2209.37C1233.08 2205.96 1231.8 2205.53 1228.61 2206.01C1226.15 2206.42 1225.02 2207.56 1224.48 2210.1C1224.16 2211.63 1224.51 2212.48 1226.4 2215.03C1227.64 2216.73 1228.74 2218.57 1228.79 2219.13C1228.98 2220.5 1208.16 2248.37 1207.14 2248.15C1206.74 2248.07 1206.31 2247.04 1206.26 2245.87C1206.14 2244.74 1205.43 2231.61 1204.68 2216.71C1203.87 2201.8 1202.89 2188.79 1202.46 2187.76C1201.46 2185.17 1198.82 2182.79 1192.88 2179.21C1187.41 2175.89 1187.52 2175.92 1185.67 2176.24Z" fill="#515050"/>
<path d="M1609.49 2275.38C1606.55 2276.08 1601.99 2276.88 1599.38 2277.15C1593.02 2277.73 1589.95 2279.34 1589.31 2282.35C1588.63 2285.52 1590.14 2287.39 1594.97 2289.24L1598.8 2290.77L1599.6 2293.7C1601.82 2301.96 1612.05 2347.14 1611.87 2347.98C1611.76 2348.51 1610.52 2349.85 1609.15 2350.99C1606.01 2353.47 1605.26 2356.18 1606.83 2358.84C1607.76 2360.36 1608.34 2360.7 1610.72 2361.21C1612.94 2361.68 1614.69 2361.55 1619.08 2360.44C1622.14 2359.71 1626.16 2358.97 1627.97 2358.8C1635.77 2358.14 1638.84 2356.53 1639.14 2352.89C1639.33 2350.06 1637.67 2348.05 1634.24 2346.88C1629.43 2345.25 1629.32 2345.18 1628.69 2342.28C1628.31 2340.71 1625.36 2328.05 1622.1 2314.05C1618.85 2300.06 1616.24 2288.3 1616.33 2287.87C1616.42 2287.45 1617.65 2286.11 1619.03 2284.92C1622.29 2282.18 1623.05 2279.42 1621.28 2276.84C1619.36 2274.16 1616.12 2273.75 1609.49 2275.38Z" fill="#515050"/>
<path d="M1556.58 2280.2C1547.77 2280.32 1538.89 2284.12 1533.61 2290.01C1530.94 2293.08 1530.53 2293.88 1529.38 2298.16C1528.22 2302.5 1528.18 2303.26 1528.98 2306.47C1529.99 2310.66 1533.81 2316.16 1537.65 2319.02C1539.03 2320.09 1545.58 2324.18 1552.22 2328.13C1565.19 2335.8 1568.61 2338.41 1570.58 2342.02C1572.46 2345.46 1571.9 2349.48 1569.16 2352.32C1565.81 2355.81 1558.83 2357.64 1553.49 2356.5C1549.97 2355.75 1546.98 2352.8 1545.3 2348.41C1543.18 2342.72 1541.99 2341.36 1538.92 2340.71C1536.76 2340.25 1535.91 2340.35 1534.28 2341.32C1533.19 2341.98 1532.2 2343.03 1532.07 2343.62C1531.75 2345.15 1533.11 2357.47 1533.95 2360.19C1535.03 2363.79 1537.83 2365.43 1546.56 2367.62C1554.74 2369.63 1558.81 2369.78 1565.78 2368.22C1571.14 2367.04 1578.5 2363.14 1581.89 2359.72C1590.79 2350.79 1590.21 2336.48 1580.64 2326.77C1575.95 2322.02 1571.15 2318.63 1559.98 2312.28C1549.28 2306.2 1547.06 2304.62 1545.66 2302.01C1544.52 2299.83 1545.01 2298.06 1547.28 2296.06C1551.01 2292.77 1556.75 2291.72 1561.42 2293.49C1563.4 2294.24 1563.82 2294.77 1565.47 2298.71C1567.03 2302.3 1567.77 2303.28 1569.32 2304.05C1571.79 2305.3 1574.78 2304.94 1576.62 2303.23C1579.15 2300.84 1578.59 2291.72 1575.62 2287.28C1572.73 2282.97 1564.97 2280.11 1556.58 2280.2Z" fill="#515050"/>
<path d="M1261.65 2225.12C1258.99 2225.38 1256.72 2227.66 1256.76 2229.98C1256.81 2230.88 1257.65 2233.04 1258.77 2234.77C1259.83 2236.49 1260.65 2238.21 1260.56 2238.63C1260.17 2240.48 1233.67 2288.95 1232.65 2289.56C1232.08 2289.99 1231.03 2290.21 1230.4 2290.08C1229.72 2289.93 1228.03 2290.07 1226.61 2290.32C1222.1 2291.18 1220.14 2295.07 1222.57 2298.18C1224.2 2300.3 1225.5 2301.13 1230.89 2303.43C1233.67 2304.57 1237.54 2306.5 1239.54 2307.7C1244.32 2310.64 1247.56 2311.28 1250.13 2309.83C1253.47 2308.06 1253.74 2305.41 1251.13 2301.21C1249.88 2299.24 1249.23 2297.55 1249.45 2296.83C1249.59 2296.14 1255.76 2284.42 1263.11 2270.8L1276.55 2246.06L1280.36 2245.76C1285.56 2245.32 1287.24 2244.35 1287.86 2241.45C1288.68 2237.59 1286.44 2235.29 1279.26 2232.5C1277.18 2231.67 1273.62 2229.98 1271.29 2228.65C1265.67 2225.47 1264.18 2224.94 1261.65 2225.12Z" fill="#515050"/>
<path d="M1481.93 2282.07C1481.29 2282.04 1477.65 2282.1 1473.83 2282.22C1469.96 2282.28 1463.16 2282.16 1458.69 2281.93C1454.17 2281.69 1449.91 2281.67 1449.16 2281.84C1447.09 2282.34 1445.62 2283.96 1445.17 2286.07C1444.67 2288.45 1446.55 2291.06 1449.68 2292.22C1454.08 2293.87 1454.83 2294.25 1454.93 2294.88C1455.19 2296.48 1453.02 2354.76 1452.64 2355.12C1452.49 2355.31 1450.78 2355.77 1448.99 2356.11C1447.2 2356.45 1445.27 2357.14 1444.78 2357.76C1443.31 2359.37 1443.19 2363.32 1444.6 2365.33C1446.3 2367.68 1450.79 2368.58 1456.34 2367.61C1460.04 2366.96 1460.93 2366.98 1467.46 2368.37C1473.21 2369.53 1474.94 2369.74 1476.64 2369.27C1480.62 2368.18 1482.61 2363.25 1480.46 2359.98C1479.62 2358.64 1478.91 2358.33 1475.62 2357.63C1471.02 2356.65 1470.34 2355.9 1470.53 2352.24C1470.59 2350.82 1470.84 2344.91 1471.01 2339.09C1471.23 2333.29 1471.6 2328.45 1471.87 2328.34C1473.07 2327.99 1474.77 2330.34 1482.19 2342.9C1492.56 2360.29 1496.01 2365.27 1499.82 2368.01C1504.11 2371.02 1508.47 2372.28 1512.14 2371.51C1516.81 2370.46 1519.6 2366.58 1517.87 2363.51C1517.5 2362.77 1515.4 2360.89 1513.23 2359.38C1509.52 2356.71 1509.11 2356.13 1504.62 2348.22C1502.03 2343.64 1498.2 2337.08 1496.08 2333.65C1493.91 2330.21 1492.24 2327.15 1492.38 2326.79C1492.45 2326.42 1494.14 2325.46 1496.12 2324.55C1503.01 2321.43 1507.5 2316.81 1508.59 2311.63C1509.17 2308.94 1508.76 2303.61 1507.67 2300.34C1505.55 2294.1 1499.74 2287.95 1492.86 2284.83C1489.55 2283.36 1484.54 2282.07 1481.93 2282.07ZM1484.84 2296.6C1490.57 2300.63 1491.3 2308.68 1486.25 2313.18C1482.44 2316.57 1473.74 2317.87 1472.22 2315.22C1471.69 2314.34 1471.72 2298.28 1472.19 2295.79C1472.33 2295.15 1473.09 2294.38 1473.86 2294.1C1475.93 2293.27 1482.16 2294.7 1484.84 2296.6Z" fill="#515050"/>
<path d="M1869.51 2432.74C1867.83 2433.1 1864.05 2434.73 1861.11 2436.26C1854.95 2439.53 1847.68 2442.18 1840.45 2443.85C1833.71 2445.4 1831.87 2446.77 1831.1 2450.69C1830.22 2455.09 1830.49 2456.36 1832.49 2457.83C1835.34 2460.04 1838.19 2460.32 1844.29 2459.02C1849.45 2457.9 1849.86 2457.94 1851.12 2458.98C1851.88 2459.58 1858.8 2473.41 1867.33 2491.35C1886.43 2531.4 1885.32 2529.06 1884.57 2529.51C1884.16 2529.76 1880.18 2527.81 1874.13 2524.48C1831.44 2501.06 1779.81 2473.64 1776.25 2472.5C1772.48 2471.25 1769.11 2471.75 1763.71 2474.25C1761.27 2475.39 1756.79 2477.19 1753.79 2478.21C1746.23 2480.8 1743.77 2483.15 1744.33 2487.24C1744.46 2488.32 1745.31 2490.16 1746.2 2491.29C1748.55 2494.21 1751.36 2494.65 1757.5 2493.13C1762.71 2491.81 1764.58 2491.93 1765.99 2493.67C1767.26 2495.26 1813.29 2592.37 1813.61 2594.21C1813.99 2596.33 1812.73 2597.78 1808.06 2600.76C1805.75 2602.14 1803.52 2603.99 1803.04 2604.83C1801.21 2608.14 1802.99 2612.32 1807.13 2614.64C1810.11 2616.26 1813.11 2615.85 1818.34 2612.99C1826.93 2608.35 1833.92 2605.59 1843.24 2603.1C1845.83 2602.38 1848.51 2601.46 1849.14 2601.04C1851.07 2599.74 1852.95 2596.77 1852.91 2594.99C1852.84 2592.55 1850.53 2589.19 1848.11 2588.01C1845.58 2586.76 1843.92 2586.74 1838.56 2587.97C1833.37 2589.19 1831.37 2588.82 1829.57 2586.39C1828.09 2584.42 1792.41 2509.6 1792.57 2508.81C1792.63 2508.55 1792.9 2508.38 1793.19 2508.44C1793.93 2508.6 1824.16 2524.68 1871.09 2549.94C1915.47 2573.78 1914.82 2573.48 1917.78 2574.1C1922.6 2575.13 1926.58 2572.88 1926.62 2569.08C1926.66 2566.39 1925.08 2563.73 1919.38 2556.78L1914.32 2550.68L1891.05 2501.8C1875.78 2469.74 1867.93 2452.5 1868.11 2451.65C1868.3 2450.76 1870.09 2449.32 1873.99 2446.89C1879.51 2443.53 1879.6 2443.39 1879.75 2441.27C1879.99 2437.62 1876.84 2432.92 1873.66 2432.24C1873.09 2432.12 1871.26 2432.34 1869.51 2432.74Z" fill="#515050"/>
<path d="M949.307 2238.32C947.321 2238.72 943.954 2240.32 939.93 2242.78C929.887 2248.98 928.506 2250.73 929.836 2255.93C930.318 2257.85 930.956 2258.76 932.661 2259.95C936.073 2262.33 937.197 2262.35 943.515 2259.99C948.8 2258.03 949.47 2257.95 951.401 2258.63C957.992 2261.14 963.745 2269.26 961.336 2272.78C960.556 2273.94 878.991 2339.09 875.625 2341.24C873.562 2342.57 872.052 2342.41 867.585 2340.25C863.709 2338.38 860.301 2337.66 858.668 2338.36C854.688 2340.05 852.928 2344.7 854.54 2349.13C855.306 2351.11 856.957 2353.12 862.487 2358.38C866.789 2362.44 871.399 2367.56 874.315 2371.44C876.958 2374.92 879.85 2378.35 880.714 2379.03C885.708 2382.91 892.945 2380.69 894.168 2374.94C894.628 2372.77 894.433 2371.74 892.812 2368.19C891.556 2365.44 890.983 2363.38 891.197 2362.38C891.466 2361.11 899.612 2354.34 933.341 2327.45C956.352 2309.09 976.226 2293.5 977.507 2292.77C978.913 2292.02 980.422 2291.63 981.33 2291.82C983.261 2292.23 987.13 2295.81 989.182 2299.01C991.484 2302.7 991.581 2305.04 989.39 2309.76C986.037 2317.17 986.169 2320.17 989.99 2322.59C993.015 2324.55 995.512 2324.53 999.14 2322.54C1002.63 2320.64 1006.46 2316.87 1010.1 2311.73C1013.3 2307.28 1014.38 2303.31 1013.31 2300.27C1012.76 2298.94 1007.64 2292.88 998.28 2282.72C990.471 2274.22 978.757 2261.46 972.359 2254.42C965.972 2247.32 959.746 2240.86 958.564 2240.01C955.664 2238.01 953.04 2237.51 949.307 2238.32Z" fill="#515050"/>
<path d="M1031.94 2321.84C1029.5 2322.7 1028.17 2324.18 1027.68 2326.51C1027.03 2329.29 1028.11 2332.56 1031.4 2337.79C1034.83 2343.43 1035.06 2345.13 1032.58 2348.42C1031.61 2349.64 1016.15 2368.5 998.095 2390.33C977.552 2415.23 964.874 2430.2 963.978 2430.5C962.765 2430.91 961.981 2430.69 957.32 2428.32C953.876 2426.65 951.41 2425.68 950.4 2425.69C946.881 2425.77 942.726 2430.24 942.78 2433.9C942.915 2437.73 945.726 2440.43 963.332 2453.39C972.465 2460.13 989.526 2472.86 1001.25 2481.65C1012.99 2490.38 1023.58 2498.09 1024.82 2498.69C1028.16 2500.28 1030.78 2499.95 1033.08 2497.52C1036.03 2494.5 1045.11 2481.41 1046.07 2478.86C1047.89 2473.89 1044.25 2468.7 1038.56 2468.1C1036.12 2467.86 1035.41 2468.09 1029.93 2471.56C1025.39 2474.47 1023.62 2475.25 1022.49 2475.01C1020.9 2474.67 987.153 2450.22 986.582 2449C986.434 2448.58 986.657 2446.97 987.107 2445.41C987.827 2442.86 990.384 2439.48 1008.61 2417.41C1057.98 2357.4 1056.03 2359.58 1060.23 2360.47C1061.37 2360.71 1064.36 2361.73 1066.81 2362.75C1072.06 2364.86 1074.37 2364.91 1077.11 2362.9C1080.68 2360.34 1081.28 2355.28 1078.5 2351.32C1076.95 2349.12 1076.53 2348.86 1066.04 2344.04C1057.29 2339.97 1051.33 2335.62 1046.03 2329.25C1043.86 2326.63 1041.28 2323.93 1040.34 2323.34C1037.9 2321.72 1034.11 2321.08 1031.94 2321.84Z" fill="#515050"/>
<path d="M1700.25 2487.98C1697.14 2488.37 1622.2 2500.55 1620.32 2500.98C1619.08 2501.27 1617.04 2502.22 1615.85 2503.07C1613.98 2504.33 1613.53 2505 1613.04 2507.33C1612.32 2510.71 1613.2 2513.27 1615.73 2515.08C1618.2 2516.87 1620.55 2517.26 1626.05 2516.77C1632.23 2516.21 1633.31 2516.71 1634.19 2520.65C1637.93 2536.3 1656.85 2628.31 1656.5 2629.12C1656.21 2629.89 1654.68 2630.67 1651.59 2631.56C1646.1 2633.1 1644.92 2633.62 1643.31 2635.04C1639.58 2638.34 1642.37 2645.33 1647.88 2646.5C1652.53 2647.49 1661.19 2646.4 1702.25 2639.78C1725.8 2635.95 1745.79 2632.63 1746.67 2632.43C1747.6 2632.24 1749.18 2631.48 1750.28 2630.77C1753.78 2628.59 1753.72 2626.04 1749.85 2611.58C1748.5 2606.49 1747.32 2604.2 1745.17 2602.31C1740.66 2598.42 1735.45 2598.91 1732.34 2603.5C1730.97 2605.47 1730.83 2606.1 1730.74 2609.89C1730.58 2615.66 1730.15 2617.44 1728.58 2618.38C1727.9 2618.79 1717.67 2620.59 1705.87 2622.44C1685.67 2625.6 1684.4 2625.72 1683.25 2624.7C1682.19 2623.87 1680.76 2617.99 1675.37 2592.23C1671.74 2574.95 1668.81 2560.52 1668.89 2560.15C1668.97 2559.79 1669.5 2559.24 1670.09 2558.97C1671.81 2558.13 1702.98 2553.37 1703.66 2553.79C1704.02 2554.04 1705.21 2556 1706.28 2558.22C1709.28 2564.21 1713.03 2566.11 1717.89 2564.21C1722.42 2562.42 1724.15 2557.93 1722.14 2553.14C1719.64 2547.03 1718.14 2540.7 1717.43 2532.82C1716.83 2525.9 1713.01 2522.93 1706.39 2524.18C1702.42 2524.99 1701.52 2526.13 1700.56 2531.77C1699.89 2535.49 1699.51 2536.74 1698.7 2537.17C1697.55 2537.87 1668.34 2542.65 1667.03 2542.37C1664.99 2541.94 1663.87 2538.83 1661.28 2526.41C1659.81 2519.36 1658.71 2513.06 1658.84 2512.48C1658.96 2511.89 1659.7 2511.22 1660.53 2510.96C1662.58 2510.23 1693.33 2505.45 1694.41 2505.68C1694.87 2505.78 1696.61 2507.64 1698.24 2509.75C1702.22 2515.01 1703.77 2516.11 1707.69 2516.67C1715.6 2517.69 1717.63 2511.22 1713.26 2499.08C1711.47 2494.12 1709.94 2491.53 1708.05 2490.08C1706.69 2488.97 1702.08 2487.77 1700.25 2487.98Z" fill="#515050"/>
<path d="M1145.89 2401.25C1143.32 2401.86 1140.41 2404.67 1139.93 2406.94C1139.5 2408.94 1140.53 2412.2 1142.13 2413.92C1142.8 2414.67 1145.24 2416.29 1147.51 2417.65C1154.43 2421.66 1156.7 2415.74 1126.79 2471.88C1112.49 2498.65 1100.48 2521.11 1100.07 2521.63C1099.1 2523.14 1098.41 2523.04 1092.23 2520.85C1087.15 2519.05 1086.41 2518.89 1084.48 2519.31C1080.44 2520.17 1078.08 2524.3 1079.35 2528.38C1080.09 2530.75 1081.19 2531.75 1086.61 2535.28C1090.53 2537.77 1159.47 2571.46 1169.04 2575.59C1173.56 2577.49 1176.64 2577.53 1178.81 2575.68C1180.06 2574.56 1184.43 2566.55 1187.72 2559.18C1191.02 2551.77 1187.31 2544.63 1180.3 2544.91C1177.07 2545.05 1174.33 2546.79 1170.5 2551.11C1167.28 2554.79 1166.41 2555.27 1164.08 2554.77C1163.4 2554.63 1155.08 2550.76 1145.68 2546.11C1136.21 2541.51 1127.55 2537.29 1126.42 2536.78C1125.34 2536.27 1124.14 2535.19 1123.79 2534.34C1123.24 2533.01 1124.01 2531.35 1138.21 2504.72C1147.68 2486.97 1153.64 2476.26 1154.4 2475.76C1155.62 2475.02 1156.01 2475.16 1170.37 2482.13C1178.44 2486.06 1185.41 2489.58 1185.93 2489.91C1186.59 2490.44 1186.59 2491.59 1185.86 2495.86C1184.96 2500.91 1185.01 2501.25 1186.26 2503.17C1188.97 2507.17 1194.45 2508.22 1198.4 2505.53C1200.63 2504.02 1201.1 2503.18 1202.77 2498.12C1204.11 2494.05 1207.33 2487.83 1209.93 2484.24C1211.11 2482.62 1212.45 2480.47 1212.92 2479.41C1214.9 2475.36 1213.04 2471.54 1207.97 2469.14C1204.52 2467.53 1201.92 2468.02 1198.89 2470.86C1194.8 2474.73 1194.31 2475.07 1192.89 2474.77C1190.62 2474.29 1164.89 2461.54 1164.05 2460.47C1163.57 2459.93 1163.34 2458.78 1163.52 2457.93C1163.87 2456.3 1175.33 2434.5 1176.57 2433.1C1177.04 2432.6 1177.97 2432.41 1178.88 2432.6C1180.98 2433.05 1209.68 2447.15 1210.27 2447.99C1210.54 2448.38 1210.73 2451.12 1210.7 2454.1C1210.68 2460.06 1211.26 2461.78 1214.18 2464.22C1219.67 2468.87 1224.68 2465.96 1229 2455.67C1232.26 2447.86 1232.55 2444.28 1230.27 2441.03C1229.51 2439.88 1227.65 2438.27 1226.22 2437.47C1220.24 2434.04 1152.35 2401.57 1150.3 2401.14C1149.05 2400.87 1147.09 2400.89 1145.89 2401.25Z" fill="#515050"/>
<path d="M1530.41 2502.03C1507.08 2500.11 1484.94 2506.28 1470.4 2518.82C1463.34 2524.94 1456.35 2534.66 1451.81 2544.84C1448.31 2552.66 1445.71 2564.91 1445.83 2573C1445.97 2580.75 1446.83 2586.46 1448.89 2594.07C1453.81 2611.73 1462.95 2625.99 1475.77 2635.78C1484.3 2642.28 1492.09 2646.14 1503.54 2649.51C1526.12 2656.08 1550.47 2653.8 1569.26 2643.27C1578.08 2638.35 1586.4 2631.34 1588.84 2626.84C1590.93 2622.87 1589.21 2618.69 1584.82 2617.26C1580.82 2615.97 1578.59 2616.71 1572.69 2621.26C1564.19 2627.78 1557.65 2631.14 1547.57 2634.19C1536.59 2637.54 1526.44 2638.09 1516.29 2635.88C1506.74 2633.85 1500.07 2630.34 1493.31 2623.88C1481.92 2612.96 1475.74 2596.8 1475.37 2576.73C1475.26 2571.68 1475.58 2569.32 1477.65 2559.28C1479.85 2548.92 1480.41 2547.16 1482.36 2543.27C1491.73 2525.17 1506.32 2516.84 1526.94 2517.85C1532.87 2518.12 1541.97 2520 1546.01 2521.68C1550.09 2523.43 1554.78 2527.03 1557.64 2530.61C1559.01 2532.28 1562.11 2537.25 1564.61 2541.7C1567.1 2546.15 1569.84 2550.32 1570.71 2550.95C1572.6 2552.4 1576.52 2552.95 1578.96 2552.09C1579.85 2551.78 1581.14 2550.79 1581.8 2549.88C1582.89 2548.4 1582.97 2547.75 1582.59 2541.99C1582.38 2538.52 1582.18 2533.56 1582.2 2530.97C1582.22 2525.57 1581.24 2522.93 1578.07 2519.66C1569.79 2511.17 1549.42 2503.64 1530.41 2502.03Z" fill="#515050"/>
<path d="M1242.4 3045.61C1225.07 3046.13 1207.67 3056.78 1189.77 3077.93C1168.79 3102.62 1151.16 3137.85 1136.99 3183.31C1133.79 3193.62 1125.79 3229.62 1123.88 3242.24C1115.25 3300.2 1118.75 3352.17 1133.7 3386.59C1139.47 3399.91 1147.06 3410.3 1155.5 3416.4C1160.95 3420.37 1165 3422.22 1170.91 3423.48C1176.82 3424.73 1181.28 3424.69 1187.87 3423.27C1221.81 3416.07 1258.61 3366.59 1281.24 3297.81C1287.02 3280.38 1290.28 3267.55 1294.63 3245.39C1299.53 3220.65 1301.19 3207.81 1302.21 3186.5C1305.11 3129.54 1294.43 3082.33 1273.64 3060.03C1264.5 3050.25 1253.8 3045.27 1242.4 3045.61ZM1257.39 3063.31C1268.56 3070.54 1277.94 3087 1282.97 3108.33C1290.3 3139.2 1290.68 3179.3 1284.07 3223.55C1281.97 3237.63 1273.47 3275.13 1269.6 3287.5C1253.92 3337.55 1233.11 3375.75 1210.46 3396.27C1193.79 3411.34 1177.29 3414.95 1163.83 3406.52C1147.75 3396.42 1136.45 3368.02 1133.44 3329.95C1129.18 3277.1 1139.76 3210.51 1161.29 3154.69C1183.28 3097.59 1214.41 3059.98 1240.67 3058.77C1245.64 3058.56 1253.22 3060.61 1257.39 3063.31Z" fill="#515050"/>
</svg>
